<?xml version="1.0" encoding="utf-8"?>
<svg xmlns="http://www.w3.org/2000/svg" xmlns:xlink="http://www.w3.org/1999/xlink" width="600" height="400" viewBox="0 0 2400 1600">
<defs>
  <clipPath id="clip900">
    <rect x="0" y="0" width="2400" height="1600"/>
  </clipPath>
</defs>
<path clip-path="url(#clip900)" d="M0 1600 L2400 1600 L2400 0 L0 0  Z" fill="#ffffff" fill-rule="evenodd" fill-opacity="1"/>
<defs>
  <clipPath id="clip901">
    <rect x="480" y="0" width="1681" height="1600"/>
  </clipPath>
</defs>
<path clip-path="url(#clip900)" d="M186.274 1486.45 L2352.76 1486.45 L2352.76 47.2441 L186.274 47.2441  Z" fill="#ffffff" fill-rule="evenodd" fill-opacity="1"/>
<defs>
  <clipPath id="clip902">
    <rect x="186" y="47" width="2167" height="1440"/>
  </clipPath>
</defs>
<polyline clip-path="url(#clip902)" style="stroke:#000000; stroke-linecap:round; stroke-linejoin:round; stroke-width:2; stroke-opacity:0.1; fill:none" points="280.555,1486.45 280.555,47.2441 "/>
<polyline clip-path="url(#clip902)" style="stroke:#000000; stroke-linecap:round; stroke-linejoin:round; stroke-width:2; stroke-opacity:0.1; fill:none" points="610.208,1486.45 610.208,47.2441 "/>
<polyline clip-path="url(#clip902)" style="stroke:#000000; stroke-linecap:round; stroke-linejoin:round; stroke-width:2; stroke-opacity:0.1; fill:none" points="939.862,1486.45 939.862,47.2441 "/>
<polyline clip-path="url(#clip902)" style="stroke:#000000; stroke-linecap:round; stroke-linejoin:round; stroke-width:2; stroke-opacity:0.1; fill:none" points="1269.51,1486.45 1269.51,47.2441 "/>
<polyline clip-path="url(#clip902)" style="stroke:#000000; stroke-linecap:round; stroke-linejoin:round; stroke-width:2; stroke-opacity:0.1; fill:none" points="1599.17,1486.45 1599.17,47.2441 "/>
<polyline clip-path="url(#clip902)" style="stroke:#000000; stroke-linecap:round; stroke-linejoin:round; stroke-width:2; stroke-opacity:0.1; fill:none" points="1928.82,1486.45 1928.82,47.2441 "/>
<polyline clip-path="url(#clip902)" style="stroke:#000000; stroke-linecap:round; stroke-linejoin:round; stroke-width:2; stroke-opacity:0.1; fill:none" points="2258.48,1486.45 2258.48,47.2441 "/>
<polyline clip-path="url(#clip902)" style="stroke:#000000; stroke-linecap:round; stroke-linejoin:round; stroke-width:2; stroke-opacity:0.1; fill:none" points="186.274,1251.75 2352.76,1251.75 "/>
<polyline clip-path="url(#clip902)" style="stroke:#000000; stroke-linecap:round; stroke-linejoin:round; stroke-width:2; stroke-opacity:0.1; fill:none" points="186.274,1009.3 2352.76,1009.3 "/>
<polyline clip-path="url(#clip902)" style="stroke:#000000; stroke-linecap:round; stroke-linejoin:round; stroke-width:2; stroke-opacity:0.1; fill:none" points="186.274,766.846 2352.76,766.846 "/>
<polyline clip-path="url(#clip902)" style="stroke:#000000; stroke-linecap:round; stroke-linejoin:round; stroke-width:2; stroke-opacity:0.1; fill:none" points="186.274,524.393 2352.76,524.393 "/>
<polyline clip-path="url(#clip902)" style="stroke:#000000; stroke-linecap:round; stroke-linejoin:round; stroke-width:2; stroke-opacity:0.1; fill:none" points="186.274,281.939 2352.76,281.939 "/>
<polyline clip-path="url(#clip900)" style="stroke:#000000; stroke-linecap:round; stroke-linejoin:round; stroke-width:4; stroke-opacity:1; fill:none" points="186.274,1486.45 2352.76,1486.45 "/>
<polyline clip-path="url(#clip900)" style="stroke:#000000; stroke-linecap:round; stroke-linejoin:round; stroke-width:4; stroke-opacity:1; fill:none" points="280.555,1486.45 280.555,1467.55 "/>
<polyline clip-path="url(#clip900)" style="stroke:#000000; stroke-linecap:round; stroke-linejoin:round; stroke-width:4; stroke-opacity:1; fill:none" points="610.208,1486.45 610.208,1467.55 "/>
<polyline clip-path="url(#clip900)" style="stroke:#000000; stroke-linecap:round; stroke-linejoin:round; stroke-width:4; stroke-opacity:1; fill:none" points="939.862,1486.45 939.862,1467.55 "/>
<polyline clip-path="url(#clip900)" style="stroke:#000000; stroke-linecap:round; stroke-linejoin:round; stroke-width:4; stroke-opacity:1; fill:none" points="1269.51,1486.45 1269.51,1467.55 "/>
<polyline clip-path="url(#clip900)" style="stroke:#000000; stroke-linecap:round; stroke-linejoin:round; stroke-width:4; stroke-opacity:1; fill:none" points="1599.17,1486.45 1599.17,1467.55 "/>
<polyline clip-path="url(#clip900)" style="stroke:#000000; stroke-linecap:round; stroke-linejoin:round; stroke-width:4; stroke-opacity:1; fill:none" points="1928.82,1486.45 1928.82,1467.55 "/>
<polyline clip-path="url(#clip900)" style="stroke:#000000; stroke-linecap:round; stroke-linejoin:round; stroke-width:4; stroke-opacity:1; fill:none" points="2258.48,1486.45 2258.48,1467.55 "/>
<path clip-path="url(#clip900)" d="M250.497 1532.02 L280.173 1532.02 L280.173 1535.95 L250.497 1535.95 L250.497 1532.02 Z" fill="#000000" fill-rule="nonzero" fill-opacity="1" /><path clip-path="url(#clip900)" d="M294.293 1544.91 L310.613 1544.91 L310.613 1548.85 L288.668 1548.85 L288.668 1544.91 Q291.33 1542.16 295.914 1537.53 Q300.52 1532.88 301.701 1531.53 Q303.946 1529.01 304.826 1527.27 Q305.728 1525.51 305.728 1523.82 Q305.728 1521.07 303.784 1519.33 Q301.863 1517.6 298.761 1517.6 Q296.562 1517.6 294.108 1518.36 Q291.677 1519.13 288.9 1520.68 L288.9 1515.95 Q291.724 1514.82 294.177 1514.24 Q296.631 1513.66 298.668 1513.66 Q304.039 1513.66 307.233 1516.35 Q310.427 1519.03 310.427 1523.52 Q310.427 1525.65 309.617 1527.57 Q308.83 1529.47 306.724 1532.07 Q306.145 1532.74 303.043 1535.95 Q299.941 1539.15 294.293 1544.91 Z" fill="#000000" fill-rule="nonzero" fill-opacity="1" /><path clip-path="url(#clip900)" d="M579.965 1532.02 L609.641 1532.02 L609.641 1535.95 L579.965 1535.95 L579.965 1532.02 Z" fill="#000000" fill-rule="nonzero" fill-opacity="1" /><path clip-path="url(#clip900)" d="M620.544 1544.91 L628.183 1544.91 L628.183 1518.55 L619.873 1520.21 L619.873 1515.95 L628.136 1514.29 L632.812 1514.29 L632.812 1544.91 L640.451 1544.91 L640.451 1548.85 L620.544 1548.85 L620.544 1544.91 Z" fill="#000000" fill-rule="nonzero" fill-opacity="1" /><path clip-path="url(#clip900)" d="M939.862 1517.37 Q936.25 1517.37 934.422 1520.93 Q932.616 1524.47 932.616 1531.6 Q932.616 1538.71 934.422 1542.27 Q936.25 1545.82 939.862 1545.82 Q943.496 1545.82 945.301 1542.27 Q947.13 1538.71 947.13 1531.6 Q947.13 1524.47 945.301 1520.93 Q943.496 1517.37 939.862 1517.37 M939.862 1513.66 Q945.672 1513.66 948.727 1518.27 Q951.806 1522.85 951.806 1531.6 Q951.806 1540.33 948.727 1544.94 Q945.672 1549.52 939.862 1549.52 Q934.051 1549.52 930.973 1544.94 Q927.917 1540.33 927.917 1531.6 Q927.917 1522.85 930.973 1518.27 Q934.051 1513.66 939.862 1513.66 Z" fill="#000000" fill-rule="nonzero" fill-opacity="1" /><path clip-path="url(#clip900)" d="M1259.9 1544.91 L1267.54 1544.91 L1267.54 1518.55 L1259.23 1520.21 L1259.23 1515.95 L1267.49 1514.29 L1272.17 1514.29 L1272.17 1544.91 L1279.8 1544.91 L1279.8 1548.85 L1259.9 1548.85 L1259.9 1544.91 Z" fill="#000000" fill-rule="nonzero" fill-opacity="1" /><path clip-path="url(#clip900)" d="M1593.82 1544.91 L1610.14 1544.91 L1610.14 1548.85 L1588.2 1548.85 L1588.2 1544.91 Q1590.86 1542.16 1595.44 1537.53 Q1600.05 1532.88 1601.23 1531.53 Q1603.47 1529.01 1604.35 1527.27 Q1605.26 1525.51 1605.26 1523.82 Q1605.26 1521.07 1603.31 1519.33 Q1601.39 1517.6 1598.29 1517.6 Q1596.09 1517.6 1593.64 1518.36 Q1591.21 1519.13 1588.43 1520.68 L1588.43 1515.95 Q1591.25 1514.82 1593.71 1514.24 Q1596.16 1513.66 1598.2 1513.66 Q1603.57 1513.66 1606.76 1516.35 Q1609.96 1519.03 1609.96 1523.52 Q1609.96 1525.65 1609.15 1527.57 Q1608.36 1529.47 1606.25 1532.07 Q1605.67 1532.74 1602.57 1535.95 Q1599.47 1539.15 1593.82 1544.91 Z" fill="#000000" fill-rule="nonzero" fill-opacity="1" /><path clip-path="url(#clip900)" d="M1933.07 1530.21 Q1936.43 1530.93 1938.3 1533.2 Q1940.2 1535.47 1940.2 1538.8 Q1940.2 1543.92 1936.68 1546.72 Q1933.16 1549.52 1926.68 1549.52 Q1924.5 1549.52 1922.19 1549.08 Q1919.9 1548.66 1917.44 1547.81 L1917.44 1543.29 Q1919.39 1544.43 1921.7 1545.01 Q1924.02 1545.58 1926.54 1545.58 Q1930.94 1545.58 1933.23 1543.85 Q1935.55 1542.11 1935.55 1538.8 Q1935.55 1535.75 1933.39 1534.03 Q1931.26 1532.3 1927.44 1532.3 L1923.42 1532.3 L1923.42 1528.45 L1927.63 1528.45 Q1931.08 1528.45 1932.91 1527.09 Q1934.74 1525.7 1934.74 1523.11 Q1934.74 1520.45 1932.84 1519.03 Q1930.96 1517.6 1927.44 1517.6 Q1925.52 1517.6 1923.32 1518.01 Q1921.12 1518.43 1918.49 1519.31 L1918.49 1515.14 Q1921.15 1514.4 1923.46 1514.03 Q1925.8 1513.66 1927.86 1513.66 Q1933.19 1513.66 1936.29 1516.09 Q1939.39 1518.5 1939.39 1522.62 Q1939.39 1525.49 1937.75 1527.48 Q1936.1 1529.45 1933.07 1530.21 Z" fill="#000000" fill-rule="nonzero" fill-opacity="1" /><path clip-path="url(#clip900)" d="M2261.48 1518.36 L2249.68 1536.81 L2261.48 1536.81 L2261.48 1518.36 M2260.26 1514.29 L2266.14 1514.29 L2266.14 1536.81 L2271.07 1536.81 L2271.07 1540.7 L2266.14 1540.7 L2266.14 1548.85 L2261.48 1548.85 L2261.48 1540.7 L2245.88 1540.7 L2245.88 1536.19 L2260.26 1514.29 Z" fill="#000000" fill-rule="nonzero" fill-opacity="1" /><polyline clip-path="url(#clip900)" style="stroke:#000000; stroke-linecap:round; stroke-linejoin:round; stroke-width:4; stroke-opacity:1; fill:none" points="186.274,1486.45 186.274,47.2441 "/>
<polyline clip-path="url(#clip900)" style="stroke:#000000; stroke-linecap:round; stroke-linejoin:round; stroke-width:4; stroke-opacity:1; fill:none" points="186.274,1251.75 205.172,1251.75 "/>
<polyline clip-path="url(#clip900)" style="stroke:#000000; stroke-linecap:round; stroke-linejoin:round; stroke-width:4; stroke-opacity:1; fill:none" points="186.274,1009.3 205.172,1009.3 "/>
<polyline clip-path="url(#clip900)" style="stroke:#000000; stroke-linecap:round; stroke-linejoin:round; stroke-width:4; stroke-opacity:1; fill:none" points="186.274,766.846 205.172,766.846 "/>
<polyline clip-path="url(#clip900)" style="stroke:#000000; stroke-linecap:round; stroke-linejoin:round; stroke-width:4; stroke-opacity:1; fill:none" points="186.274,524.393 205.172,524.393 "/>
<polyline clip-path="url(#clip900)" style="stroke:#000000; stroke-linecap:round; stroke-linejoin:round; stroke-width:4; stroke-opacity:1; fill:none" points="186.274,281.939 205.172,281.939 "/>
<path clip-path="url(#clip900)" d="M62.9365 1237.55 Q59.3254 1237.55 57.4967 1241.12 Q55.6912 1244.66 55.6912 1251.79 Q55.6912 1258.89 57.4967 1262.46 Q59.3254 1266 62.9365 1266 Q66.5707 1266 68.3763 1262.46 Q70.205 1258.89 70.205 1251.79 Q70.205 1244.66 68.3763 1241.12 Q66.5707 1237.55 62.9365 1237.55 M62.9365 1233.85 Q68.7467 1233.85 71.8022 1238.45 Q74.8809 1243.04 74.8809 1251.79 Q74.8809 1260.51 71.8022 1265.12 Q68.7467 1269.7 62.9365 1269.7 Q57.1264 1269.7 54.0477 1265.12 Q50.9921 1260.51 50.9921 1251.79 Q50.9921 1243.04 54.0477 1238.45 Q57.1264 1233.85 62.9365 1233.85 Z" fill="#000000" fill-rule="nonzero" fill-opacity="1" /><path clip-path="url(#clip900)" d="M83.0984 1263.15 L87.9827 1263.15 L87.9827 1269.03 L83.0984 1269.03 L83.0984 1263.15 Z" fill="#000000" fill-rule="nonzero" fill-opacity="1" /><path clip-path="url(#clip900)" d="M98.2141 1234.47 L116.57 1234.47 L116.57 1238.41 L102.496 1238.41 L102.496 1246.88 Q103.515 1246.53 104.534 1246.37 Q105.552 1246.19 106.571 1246.19 Q112.358 1246.19 115.737 1249.36 Q119.117 1252.53 119.117 1257.95 Q119.117 1263.52 115.645 1266.63 Q112.172 1269.7 105.853 1269.7 Q103.677 1269.7 101.409 1269.33 Q99.1632 1268.96 96.7558 1268.22 L96.7558 1263.52 Q98.8391 1264.66 101.061 1265.21 Q103.284 1265.77 105.76 1265.77 Q109.765 1265.77 112.103 1263.66 Q114.441 1261.56 114.441 1257.95 Q114.441 1254.33 112.103 1252.23 Q109.765 1250.12 105.76 1250.12 Q103.885 1250.12 102.01 1250.54 Q100.159 1250.95 98.2141 1251.83 L98.2141 1234.47 Z" fill="#000000" fill-rule="nonzero" fill-opacity="1" /><path clip-path="url(#clip900)" d="M138.33 1237.55 Q134.719 1237.55 132.89 1241.12 Q131.084 1244.66 131.084 1251.79 Q131.084 1258.89 132.89 1262.46 Q134.719 1266 138.33 1266 Q141.964 1266 143.769 1262.46 Q145.598 1258.89 145.598 1251.79 Q145.598 1244.66 143.769 1241.12 Q141.964 1237.55 138.33 1237.55 M138.33 1233.85 Q144.14 1233.85 147.195 1238.45 Q150.274 1243.04 150.274 1251.79 Q150.274 1260.51 147.195 1265.12 Q144.14 1269.7 138.33 1269.7 Q132.519 1269.7 129.441 1265.12 Q126.385 1260.51 126.385 1251.79 Q126.385 1243.04 129.441 1238.45 Q132.519 1233.85 138.33 1233.85 Z" fill="#000000" fill-rule="nonzero" fill-opacity="1" /><path clip-path="url(#clip900)" d="M63.9319 995.098 Q60.3208 995.098 58.4921 998.663 Q56.6865 1002.2 56.6865 1009.33 Q56.6865 1016.44 58.4921 1020.01 Q60.3208 1023.55 63.9319 1023.55 Q67.5661 1023.55 69.3717 1020.01 Q71.2004 1016.44 71.2004 1009.33 Q71.2004 1002.2 69.3717 998.663 Q67.5661 995.098 63.9319 995.098 M63.9319 991.394 Q69.742 991.394 72.7976 996.001 Q75.8763 1000.58 75.8763 1009.33 Q75.8763 1018.06 72.7976 1022.67 Q69.742 1027.25 63.9319 1027.25 Q58.1217 1027.25 55.043 1022.67 Q51.9875 1018.06 51.9875 1009.33 Q51.9875 1000.58 55.043 996.001 Q58.1217 991.394 63.9319 991.394 Z" fill="#000000" fill-rule="nonzero" fill-opacity="1" /><path clip-path="url(#clip900)" d="M84.0938 1020.7 L88.978 1020.7 L88.978 1026.58 L84.0938 1026.58 L84.0938 1020.7 Z" fill="#000000" fill-rule="nonzero" fill-opacity="1" /><path clip-path="url(#clip900)" d="M97.9826 992.019 L120.205 992.019 L120.205 994.01 L107.658 1026.58 L102.774 1026.58 L114.58 995.955 L97.9826 995.955 L97.9826 992.019 Z" fill="#000000" fill-rule="nonzero" fill-opacity="1" /><path clip-path="url(#clip900)" d="M129.371 992.019 L147.728 992.019 L147.728 995.955 L133.654 995.955 L133.654 1004.43 Q134.672 1004.08 135.691 1003.92 Q136.709 1003.73 137.728 1003.73 Q143.515 1003.73 146.894 1006.9 Q150.274 1010.07 150.274 1015.49 Q150.274 1021.07 146.802 1024.17 Q143.33 1027.25 137.01 1027.25 Q134.834 1027.25 132.566 1026.88 Q130.32 1026.51 127.913 1025.77 L127.913 1021.07 Q129.996 1022.2 132.219 1022.76 Q134.441 1023.32 136.918 1023.32 Q140.922 1023.32 143.26 1021.21 Q145.598 1019.1 145.598 1015.49 Q145.598 1011.88 143.26 1009.77 Q140.922 1007.67 136.918 1007.67 Q135.043 1007.67 133.168 1008.08 Q131.316 1008.5 129.371 1009.38 L129.371 992.019 Z" fill="#000000" fill-rule="nonzero" fill-opacity="1" /><path clip-path="url(#clip900)" d="M53.7467 780.191 L61.3856 780.191 L61.3856 753.825 L53.0754 755.492 L53.0754 751.233 L61.3393 749.566 L66.0152 749.566 L66.0152 780.191 L73.654 780.191 L73.654 784.126 L53.7467 784.126 L53.7467 780.191 Z" fill="#000000" fill-rule="nonzero" fill-opacity="1" /><path clip-path="url(#clip900)" d="M83.0984 778.246 L87.9827 778.246 L87.9827 784.126 L83.0984 784.126 L83.0984 778.246 Z" fill="#000000" fill-rule="nonzero" fill-opacity="1" /><path clip-path="url(#clip900)" d="M108.168 752.645 Q104.557 752.645 102.728 756.209 Q100.922 759.751 100.922 766.881 Q100.922 773.987 102.728 777.552 Q104.557 781.094 108.168 781.094 Q111.802 781.094 113.608 777.552 Q115.436 773.987 115.436 766.881 Q115.436 759.751 113.608 756.209 Q111.802 752.645 108.168 752.645 M108.168 748.941 Q113.978 748.941 117.033 753.547 Q120.112 758.131 120.112 766.881 Q120.112 775.608 117.033 780.214 Q113.978 784.797 108.168 784.797 Q102.358 784.797 99.2789 780.214 Q96.2234 775.608 96.2234 766.881 Q96.2234 758.131 99.2789 753.547 Q102.358 748.941 108.168 748.941 Z" fill="#000000" fill-rule="nonzero" fill-opacity="1" /><path clip-path="url(#clip900)" d="M138.33 752.645 Q134.719 752.645 132.89 756.209 Q131.084 759.751 131.084 766.881 Q131.084 773.987 132.89 777.552 Q134.719 781.094 138.33 781.094 Q141.964 781.094 143.769 777.552 Q145.598 773.987 145.598 766.881 Q145.598 759.751 143.769 756.209 Q141.964 752.645 138.33 752.645 M138.33 748.941 Q144.14 748.941 147.195 753.547 Q150.274 758.131 150.274 766.881 Q150.274 775.608 147.195 780.214 Q144.14 784.797 138.33 784.797 Q132.519 784.797 129.441 780.214 Q126.385 775.608 126.385 766.881 Q126.385 758.131 129.441 753.547 Q132.519 748.941 138.33 748.941 Z" fill="#000000" fill-rule="nonzero" fill-opacity="1" /><path clip-path="url(#clip900)" d="M54.7421 537.737 L62.381 537.737 L62.381 511.372 L54.0708 513.038 L54.0708 508.779 L62.3347 507.113 L67.0106 507.113 L67.0106 537.737 L74.6494 537.737 L74.6494 541.673 L54.7421 541.673 L54.7421 537.737 Z" fill="#000000" fill-rule="nonzero" fill-opacity="1" /><path clip-path="url(#clip900)" d="M84.0938 535.793 L88.978 535.793 L88.978 541.673 L84.0938 541.673 L84.0938 535.793 Z" fill="#000000" fill-rule="nonzero" fill-opacity="1" /><path clip-path="url(#clip900)" d="M103.191 537.737 L119.51 537.737 L119.51 541.673 L97.566 541.673 L97.566 537.737 Q100.228 534.983 104.811 530.353 Q109.418 525.7 110.598 524.358 Q112.844 521.835 113.723 520.099 Q114.626 518.339 114.626 516.65 Q114.626 513.895 112.682 512.159 Q110.76 510.423 107.658 510.423 Q105.459 510.423 103.006 511.187 Q100.575 511.95 97.7974 513.501 L97.7974 508.779 Q100.621 507.645 103.075 507.066 Q105.529 506.488 107.566 506.488 Q112.936 506.488 116.131 509.173 Q119.325 511.858 119.325 516.349 Q119.325 518.478 118.515 520.399 Q117.728 522.298 115.621 524.89 Q115.043 525.561 111.941 528.779 Q108.839 531.973 103.191 537.737 Z" fill="#000000" fill-rule="nonzero" fill-opacity="1" /><path clip-path="url(#clip900)" d="M129.371 507.113 L147.728 507.113 L147.728 511.048 L133.654 511.048 L133.654 519.52 Q134.672 519.173 135.691 519.011 Q136.709 518.825 137.728 518.825 Q143.515 518.825 146.894 521.997 Q150.274 525.168 150.274 530.585 Q150.274 536.163 146.802 539.265 Q143.33 542.344 137.01 542.344 Q134.834 542.344 132.566 541.973 Q130.32 541.603 127.913 540.862 L127.913 536.163 Q129.996 537.298 132.219 537.853 Q134.441 538.409 136.918 538.409 Q140.922 538.409 143.26 536.302 Q145.598 534.196 145.598 530.585 Q145.598 526.974 143.26 524.867 Q140.922 522.761 136.918 522.761 Q135.043 522.761 133.168 523.177 Q131.316 523.594 129.371 524.474 L129.371 507.113 Z" fill="#000000" fill-rule="nonzero" fill-opacity="1" /><path clip-path="url(#clip900)" d="M53.7467 295.284 L61.3856 295.284 L61.3856 268.918 L53.0754 270.585 L53.0754 266.326 L61.3393 264.659 L66.0152 264.659 L66.0152 295.284 L73.654 295.284 L73.654 299.219 L53.7467 299.219 L53.7467 295.284 Z" fill="#000000" fill-rule="nonzero" fill-opacity="1" /><path clip-path="url(#clip900)" d="M83.0984 293.339 L87.9827 293.339 L87.9827 299.219 L83.0984 299.219 L83.0984 293.339 Z" fill="#000000" fill-rule="nonzero" fill-opacity="1" /><path clip-path="url(#clip900)" d="M98.2141 264.659 L116.57 264.659 L116.57 268.594 L102.496 268.594 L102.496 277.066 Q103.515 276.719 104.534 276.557 Q105.552 276.372 106.571 276.372 Q112.358 276.372 115.737 279.543 Q119.117 282.715 119.117 288.131 Q119.117 293.71 115.645 296.812 Q112.172 299.89 105.853 299.89 Q103.677 299.89 101.409 299.52 Q99.1632 299.15 96.7558 298.409 L96.7558 293.71 Q98.8391 294.844 101.061 295.4 Q103.284 295.955 105.76 295.955 Q109.765 295.955 112.103 293.849 Q114.441 291.742 114.441 288.131 Q114.441 284.52 112.103 282.414 Q109.765 280.307 105.76 280.307 Q103.885 280.307 102.01 280.724 Q100.159 281.14 98.2141 282.02 L98.2141 264.659 Z" fill="#000000" fill-rule="nonzero" fill-opacity="1" /><path clip-path="url(#clip900)" d="M138.33 267.738 Q134.719 267.738 132.89 271.303 Q131.084 274.844 131.084 281.974 Q131.084 289.08 132.89 292.645 Q134.719 296.187 138.33 296.187 Q141.964 296.187 143.769 292.645 Q145.598 289.08 145.598 281.974 Q145.598 274.844 143.769 271.303 Q141.964 267.738 138.33 267.738 M138.33 264.034 Q144.14 264.034 147.195 268.641 Q150.274 273.224 150.274 281.974 Q150.274 290.701 147.195 295.307 Q144.14 299.89 138.33 299.89 Q132.519 299.89 129.441 295.307 Q126.385 290.701 126.385 281.974 Q126.385 273.224 129.441 268.641 Q132.519 264.034 138.33 264.034 Z" fill="#000000" fill-rule="nonzero" fill-opacity="1" /><path clip-path="url(#clip902)" d="M247.59 863.827 L1236.55 1445.72 L1895.86 1445.72 L2093.65 1251.75 L2291.44 669.865 L1302.48 87.9763 L643.174 87.9763 L445.382 281.939 L247.59 863.827 L247.59 863.827  Z" fill="#009af9" fill-rule="evenodd" fill-opacity="0.5"/>
<polyline clip-path="url(#clip902)" style="stroke:#000000; stroke-linecap:round; stroke-linejoin:round; stroke-width:4; stroke-opacity:0.5; fill:none" points="247.59,863.827 1236.55,1445.72 1895.86,1445.72 2093.65,1251.75 2291.44,669.865 1302.48,87.9763 643.174,87.9763 445.382,281.939 247.59,863.827 "/>
<polyline clip-path="url(#clip902)" style="stroke:#000000; stroke-linecap:round; stroke-linejoin:round; stroke-width:4; stroke-opacity:1; fill:none" points="1269.51,766.846 939.862,766.846 "/>
<polyline clip-path="url(#clip902)" style="stroke:#000000; stroke-linecap:round; stroke-linejoin:round; stroke-width:4; stroke-opacity:1; fill:none" points="975.862,784.846 939.862,766.846 975.862,748.846 "/>
<polyline clip-path="url(#clip902)" style="stroke:#000000; stroke-linecap:round; stroke-linejoin:round; stroke-width:4; stroke-opacity:1; fill:none" points="939.862,766.846 1269.51,766.846 "/>
<polyline clip-path="url(#clip902)" style="stroke:#000000; stroke-linecap:round; stroke-linejoin:round; stroke-width:4; stroke-opacity:1; fill:none" points="1269.51,766.846 1368.41,669.865 "/>
<polyline clip-path="url(#clip902)" style="stroke:#000000; stroke-linecap:round; stroke-linejoin:round; stroke-width:4; stroke-opacity:1; fill:none" points="1330.1,682.219 1368.41,669.865 1355.31,707.922 "/>
<polyline clip-path="url(#clip902)" style="stroke:#000000; stroke-linecap:round; stroke-linejoin:round; stroke-width:4; stroke-opacity:1; fill:none" points="1368.41,669.865 1269.51,766.846 "/>
<polyline clip-path="url(#clip902)" style="stroke:#000000; stroke-linecap:round; stroke-linejoin:round; stroke-width:4; stroke-opacity:1; fill:none" points="1269.51,766.846 1763.99,1057.79 "/>
<polyline clip-path="url(#clip902)" style="stroke:#000000; stroke-linecap:round; stroke-linejoin:round; stroke-width:4; stroke-opacity:1; fill:none" points="1742.1,1024.02 1763.99,1057.79 1723.84,1055.05 "/>
<polyline clip-path="url(#clip902)" style="stroke:#000000; stroke-linecap:round; stroke-linejoin:round; stroke-width:4; stroke-opacity:1; fill:none" points="1763.99,1057.79 1269.51,766.846 "/>
<polyline clip-path="url(#clip902)" style="stroke:#000000; stroke-linecap:round; stroke-linejoin:round; stroke-width:4; stroke-opacity:1; fill:none" points="1269.51,766.846 1368.41,475.902 "/>
<polyline clip-path="url(#clip902)" style="stroke:#000000; stroke-linecap:round; stroke-linejoin:round; stroke-width:4; stroke-opacity:1; fill:none" points="1339.78,504.194 1368.41,475.902 1373.87,515.779 "/>
<polyline clip-path="url(#clip902)" style="stroke:#000000; stroke-linecap:round; stroke-linejoin:round; stroke-width:4; stroke-opacity:1; fill:none" points="1368.41,475.902 1269.51,766.846 "/>
</svg>
