<?xml version="1.0" encoding="utf-8"?>
<svg xmlns="http://www.w3.org/2000/svg" xmlns:xlink="http://www.w3.org/1999/xlink" width="600" height="400" viewBox="0 0 2400 1600">
<defs>
  <clipPath id="clip540">
    <rect x="0" y="0" width="2400" height="1600"/>
  </clipPath>
</defs>
<path clip-path="url(#clip540)" d="M0 1600 L2400 1600 L2400 0 L0 0  Z" fill="#ffffff" fill-rule="evenodd" fill-opacity="1"/>
<defs>
  <clipPath id="clip541">
    <rect x="223" y="47" width="2131" height="1440"/>
  </clipPath>
</defs>
<path clip-path="url(#clip540)" d="M223.103 1486.45 L2352.76 1486.45 L2352.76 47.2441 L223.103 47.2441  Z" fill="#ffffff" fill-rule="evenodd" fill-opacity="1"/>
<polyline clip-path="url(#clip541)" style="stroke:#000000; stroke-linecap:round; stroke-linejoin:round; stroke-width:2; stroke-opacity:0.1; fill:none" points="223.103,1486.45 223.103,47.2441 "/>
<polyline clip-path="url(#clip541)" style="stroke:#000000; stroke-linecap:round; stroke-linejoin:round; stroke-width:2; stroke-opacity:0.1; fill:none" points="814.673,1486.45 814.673,47.2441 "/>
<polyline clip-path="url(#clip541)" style="stroke:#000000; stroke-linecap:round; stroke-linejoin:round; stroke-width:2; stroke-opacity:0.1; fill:none" points="1406.24,1486.45 1406.24,47.2441 "/>
<polyline clip-path="url(#clip541)" style="stroke:#000000; stroke-linecap:round; stroke-linejoin:round; stroke-width:2; stroke-opacity:0.1; fill:none" points="1997.81,1486.45 1997.81,47.2441 "/>
<polyline clip-path="url(#clip541)" style="stroke:#000000; stroke-linecap:round; stroke-linejoin:round; stroke-width:2; stroke-opacity:0.1; fill:none" points="223.103,1366.51 2352.76,1366.51 "/>
<polyline clip-path="url(#clip541)" style="stroke:#000000; stroke-linecap:round; stroke-linejoin:round; stroke-width:2; stroke-opacity:0.1; fill:none" points="223.103,1166.62 2352.76,1166.62 "/>
<polyline clip-path="url(#clip541)" style="stroke:#000000; stroke-linecap:round; stroke-linejoin:round; stroke-width:2; stroke-opacity:0.1; fill:none" points="223.103,966.735 2352.76,966.735 "/>
<polyline clip-path="url(#clip541)" style="stroke:#000000; stroke-linecap:round; stroke-linejoin:round; stroke-width:2; stroke-opacity:0.1; fill:none" points="223.103,766.846 2352.76,766.846 "/>
<polyline clip-path="url(#clip541)" style="stroke:#000000; stroke-linecap:round; stroke-linejoin:round; stroke-width:2; stroke-opacity:0.1; fill:none" points="223.103,566.957 2352.76,566.957 "/>
<polyline clip-path="url(#clip541)" style="stroke:#000000; stroke-linecap:round; stroke-linejoin:round; stroke-width:2; stroke-opacity:0.1; fill:none" points="223.103,367.067 2352.76,367.067 "/>
<polyline clip-path="url(#clip541)" style="stroke:#000000; stroke-linecap:round; stroke-linejoin:round; stroke-width:2; stroke-opacity:0.1; fill:none" points="223.103,167.178 2352.76,167.178 "/>
<polyline clip-path="url(#clip540)" style="stroke:#000000; stroke-linecap:round; stroke-linejoin:round; stroke-width:4; stroke-opacity:1; fill:none" points="223.103,1486.45 2352.76,1486.45 "/>
<polyline clip-path="url(#clip540)" style="stroke:#000000; stroke-linecap:round; stroke-linejoin:round; stroke-width:4; stroke-opacity:1; fill:none" points="223.103,1486.45 223.103,1467.55 "/>
<polyline clip-path="url(#clip540)" style="stroke:#000000; stroke-linecap:round; stroke-linejoin:round; stroke-width:4; stroke-opacity:1; fill:none" points="814.673,1486.45 814.673,1467.55 "/>
<polyline clip-path="url(#clip540)" style="stroke:#000000; stroke-linecap:round; stroke-linejoin:round; stroke-width:4; stroke-opacity:1; fill:none" points="1406.24,1486.45 1406.24,1467.55 "/>
<polyline clip-path="url(#clip540)" style="stroke:#000000; stroke-linecap:round; stroke-linejoin:round; stroke-width:4; stroke-opacity:1; fill:none" points="1997.81,1486.45 1997.81,1467.55 "/>
<path clip-path="url(#clip540)" d="M200.487 1517.37 Q196.876 1517.37 195.047 1520.93 Q193.242 1524.47 193.242 1531.6 Q193.242 1538.71 195.047 1542.27 Q196.876 1545.82 200.487 1545.82 Q204.121 1545.82 205.927 1542.27 Q207.755 1538.71 207.755 1531.6 Q207.755 1524.47 205.927 1520.93 Q204.121 1517.37 200.487 1517.37 M200.487 1513.66 Q206.297 1513.66 209.353 1518.27 Q212.431 1522.85 212.431 1531.6 Q212.431 1540.33 209.353 1544.94 Q206.297 1549.52 200.487 1549.52 Q194.677 1549.52 191.598 1544.94 Q188.543 1540.33 188.543 1531.6 Q188.543 1522.85 191.598 1518.27 Q194.677 1513.66 200.487 1513.66 Z" fill="#000000" fill-rule="nonzero" fill-opacity="1" /><path clip-path="url(#clip540)" d="M220.649 1542.97 L225.533 1542.97 L225.533 1548.85 L220.649 1548.85 L220.649 1542.97 Z" fill="#000000" fill-rule="nonzero" fill-opacity="1" /><path clip-path="url(#clip540)" d="M245.718 1517.37 Q242.107 1517.37 240.278 1520.93 Q238.473 1524.47 238.473 1531.6 Q238.473 1538.71 240.278 1542.27 Q242.107 1545.82 245.718 1545.82 Q249.352 1545.82 251.158 1542.27 Q252.987 1538.71 252.987 1531.6 Q252.987 1524.47 251.158 1520.93 Q249.352 1517.37 245.718 1517.37 M245.718 1513.66 Q251.528 1513.66 254.584 1518.27 Q257.663 1522.85 257.663 1531.6 Q257.663 1540.33 254.584 1544.94 Q251.528 1549.52 245.718 1549.52 Q239.908 1549.52 236.829 1544.94 Q233.774 1540.33 233.774 1531.6 Q233.774 1522.85 236.829 1518.27 Q239.908 1513.66 245.718 1513.66 Z" fill="#000000" fill-rule="nonzero" fill-opacity="1" /><path clip-path="url(#clip540)" d="M792.555 1517.37 Q788.944 1517.37 787.115 1520.93 Q785.31 1524.47 785.31 1531.6 Q785.31 1538.71 787.115 1542.27 Q788.944 1545.82 792.555 1545.82 Q796.189 1545.82 797.995 1542.27 Q799.823 1538.71 799.823 1531.6 Q799.823 1524.47 797.995 1520.93 Q796.189 1517.37 792.555 1517.37 M792.555 1513.66 Q798.365 1513.66 801.421 1518.27 Q804.499 1522.85 804.499 1531.6 Q804.499 1540.33 801.421 1544.94 Q798.365 1549.52 792.555 1549.52 Q786.745 1549.52 783.666 1544.94 Q780.611 1540.33 780.611 1531.6 Q780.611 1522.85 783.666 1518.27 Q786.745 1513.66 792.555 1513.66 Z" fill="#000000" fill-rule="nonzero" fill-opacity="1" /><path clip-path="url(#clip540)" d="M812.717 1542.97 L817.601 1542.97 L817.601 1548.85 L812.717 1548.85 L812.717 1542.97 Z" fill="#000000" fill-rule="nonzero" fill-opacity="1" /><path clip-path="url(#clip540)" d="M827.833 1514.29 L846.189 1514.29 L846.189 1518.22 L832.115 1518.22 L832.115 1526.7 Q833.133 1526.35 834.152 1526.19 Q835.17 1526 836.189 1526 Q841.976 1526 845.356 1529.17 Q848.735 1532.34 848.735 1537.76 Q848.735 1543.34 845.263 1546.44 Q841.791 1549.52 835.471 1549.52 Q833.295 1549.52 831.027 1549.15 Q828.782 1548.78 826.374 1548.04 L826.374 1543.34 Q828.458 1544.47 830.68 1545.03 Q832.902 1545.58 835.379 1545.58 Q839.383 1545.58 841.721 1543.48 Q844.059 1541.37 844.059 1537.76 Q844.059 1534.15 841.721 1532.04 Q839.383 1529.94 835.379 1529.94 Q833.504 1529.94 831.629 1530.35 Q829.777 1530.77 827.833 1531.65 L827.833 1514.29 Z" fill="#000000" fill-rule="nonzero" fill-opacity="1" /><path clip-path="url(#clip540)" d="M1373.4 1544.91 L1381.04 1544.91 L1381.04 1518.55 L1372.72 1520.21 L1372.72 1515.95 L1380.99 1514.29 L1385.66 1514.29 L1385.66 1544.91 L1393.3 1544.91 L1393.3 1548.85 L1373.4 1548.85 L1373.4 1544.91 Z" fill="#000000" fill-rule="nonzero" fill-opacity="1" /><path clip-path="url(#clip540)" d="M1402.75 1542.97 L1407.63 1542.97 L1407.63 1548.85 L1402.75 1548.85 L1402.75 1542.97 Z" fill="#000000" fill-rule="nonzero" fill-opacity="1" /><path clip-path="url(#clip540)" d="M1427.82 1517.37 Q1424.21 1517.37 1422.38 1520.93 Q1420.57 1524.47 1420.57 1531.6 Q1420.57 1538.71 1422.38 1542.27 Q1424.21 1545.82 1427.82 1545.82 Q1431.45 1545.82 1433.26 1542.27 Q1435.09 1538.71 1435.09 1531.6 Q1435.09 1524.47 1433.26 1520.93 Q1431.45 1517.37 1427.82 1517.37 M1427.82 1513.66 Q1433.63 1513.66 1436.68 1518.27 Q1439.76 1522.85 1439.76 1531.6 Q1439.76 1540.33 1436.68 1544.94 Q1433.63 1549.52 1427.82 1549.52 Q1422.01 1549.52 1418.93 1544.94 Q1415.87 1540.33 1415.87 1531.6 Q1415.87 1522.85 1418.93 1518.27 Q1422.01 1513.66 1427.82 1513.66 Z" fill="#000000" fill-rule="nonzero" fill-opacity="1" /><path clip-path="url(#clip540)" d="M1965.46 1544.91 L1973.1 1544.91 L1973.1 1518.55 L1964.79 1520.21 L1964.79 1515.95 L1973.06 1514.29 L1977.73 1514.29 L1977.73 1544.91 L1985.37 1544.91 L1985.37 1548.85 L1965.46 1548.85 L1965.46 1544.91 Z" fill="#000000" fill-rule="nonzero" fill-opacity="1" /><path clip-path="url(#clip540)" d="M1994.82 1542.97 L1999.7 1542.97 L1999.7 1548.85 L1994.82 1548.85 L1994.82 1542.97 Z" fill="#000000" fill-rule="nonzero" fill-opacity="1" /><path clip-path="url(#clip540)" d="M2009.93 1514.29 L2028.29 1514.29 L2028.29 1518.22 L2014.21 1518.22 L2014.21 1526.7 Q2015.23 1526.35 2016.25 1526.19 Q2017.27 1526 2018.29 1526 Q2024.08 1526 2027.45 1529.17 Q2030.83 1532.34 2030.83 1537.76 Q2030.83 1543.34 2027.36 1546.44 Q2023.89 1549.52 2017.57 1549.52 Q2015.39 1549.52 2013.13 1549.15 Q2010.88 1548.78 2008.47 1548.04 L2008.47 1543.34 Q2010.56 1544.47 2012.78 1545.03 Q2015 1545.58 2017.48 1545.58 Q2021.48 1545.58 2023.82 1543.48 Q2026.16 1541.37 2026.16 1537.76 Q2026.16 1534.15 2023.82 1532.04 Q2021.48 1529.94 2017.48 1529.94 Q2015.6 1529.94 2013.73 1530.35 Q2011.88 1530.77 2009.93 1531.65 L2009.93 1514.29 Z" fill="#000000" fill-rule="nonzero" fill-opacity="1" /><polyline clip-path="url(#clip540)" style="stroke:#000000; stroke-linecap:round; stroke-linejoin:round; stroke-width:4; stroke-opacity:1; fill:none" points="223.103,1486.45 223.103,47.2441 "/>
<polyline clip-path="url(#clip540)" style="stroke:#000000; stroke-linecap:round; stroke-linejoin:round; stroke-width:4; stroke-opacity:1; fill:none" points="223.103,1366.51 242,1366.51 "/>
<polyline clip-path="url(#clip540)" style="stroke:#000000; stroke-linecap:round; stroke-linejoin:round; stroke-width:4; stroke-opacity:1; fill:none" points="223.103,1166.62 242,1166.62 "/>
<polyline clip-path="url(#clip540)" style="stroke:#000000; stroke-linecap:round; stroke-linejoin:round; stroke-width:4; stroke-opacity:1; fill:none" points="223.103,966.735 242,966.735 "/>
<polyline clip-path="url(#clip540)" style="stroke:#000000; stroke-linecap:round; stroke-linejoin:round; stroke-width:4; stroke-opacity:1; fill:none" points="223.103,766.846 242,766.846 "/>
<polyline clip-path="url(#clip540)" style="stroke:#000000; stroke-linecap:round; stroke-linejoin:round; stroke-width:4; stroke-opacity:1; fill:none" points="223.103,566.957 242,566.957 "/>
<polyline clip-path="url(#clip540)" style="stroke:#000000; stroke-linecap:round; stroke-linejoin:round; stroke-width:4; stroke-opacity:1; fill:none" points="223.103,367.067 242,367.067 "/>
<polyline clip-path="url(#clip540)" style="stroke:#000000; stroke-linecap:round; stroke-linejoin:round; stroke-width:4; stroke-opacity:1; fill:none" points="223.103,167.178 242,167.178 "/>
<path clip-path="url(#clip540)" d="M50.9921 1366.97 L80.6679 1366.97 L80.6679 1370.9 L50.9921 1370.9 L50.9921 1366.97 Z" fill="#000000" fill-rule="nonzero" fill-opacity="1" /><path clip-path="url(#clip540)" d="M100.76 1352.31 Q97.1493 1352.31 95.3206 1355.88 Q93.515 1359.42 93.515 1366.55 Q93.515 1373.66 95.3206 1377.22 Q97.1493 1380.76 100.76 1380.76 Q104.395 1380.76 106.2 1377.22 Q108.029 1373.66 108.029 1366.55 Q108.029 1359.42 106.2 1355.88 Q104.395 1352.31 100.76 1352.31 M100.76 1348.61 Q106.571 1348.61 109.626 1353.22 Q112.705 1357.8 112.705 1366.55 Q112.705 1375.28 109.626 1379.88 Q106.571 1384.47 100.76 1384.47 Q94.9502 1384.47 91.8715 1379.88 Q88.816 1375.28 88.816 1366.55 Q88.816 1357.8 91.8715 1353.22 Q94.9502 1348.61 100.76 1348.61 Z" fill="#000000" fill-rule="nonzero" fill-opacity="1" /><path clip-path="url(#clip540)" d="M120.922 1377.91 L125.807 1377.91 L125.807 1383.79 L120.922 1383.79 L120.922 1377.91 Z" fill="#000000" fill-rule="nonzero" fill-opacity="1" /><path clip-path="url(#clip540)" d="M140.019 1379.86 L156.339 1379.86 L156.339 1383.79 L134.394 1383.79 L134.394 1379.86 Q137.056 1377.1 141.64 1372.47 Q146.246 1367.82 147.427 1366.48 Q149.672 1363.96 150.552 1362.22 Q151.455 1360.46 151.455 1358.77 Q151.455 1356.02 149.51 1354.28 Q147.589 1352.54 144.487 1352.54 Q142.288 1352.54 139.834 1353.31 Q137.404 1354.07 134.626 1355.62 L134.626 1350.9 Q137.45 1349.77 139.904 1349.19 Q142.357 1348.61 144.394 1348.61 Q149.765 1348.61 152.959 1351.29 Q156.154 1353.98 156.154 1358.47 Q156.154 1360.6 155.343 1362.52 Q154.556 1364.42 152.45 1367.01 Q151.871 1367.68 148.769 1370.9 Q145.668 1374.1 140.019 1379.86 Z" fill="#000000" fill-rule="nonzero" fill-opacity="1" /><path clip-path="url(#clip540)" d="M166.2 1349.23 L184.556 1349.23 L184.556 1353.17 L170.482 1353.17 L170.482 1361.64 Q171.501 1361.29 172.519 1361.13 Q173.538 1360.95 174.556 1360.95 Q180.343 1360.95 183.723 1364.12 Q187.103 1367.29 187.103 1372.71 Q187.103 1378.28 183.63 1381.39 Q180.158 1384.47 173.839 1384.47 Q171.663 1384.47 169.394 1384.1 Q167.149 1383.72 164.742 1382.98 L164.742 1378.28 Q166.825 1379.42 169.047 1379.97 Q171.269 1380.53 173.746 1380.53 Q177.751 1380.53 180.089 1378.42 Q182.427 1376.32 182.427 1372.71 Q182.427 1369.1 180.089 1366.99 Q177.751 1364.88 173.746 1364.88 Q171.871 1364.88 169.996 1365.3 Q168.144 1365.72 166.2 1366.6 L166.2 1349.23 Z" fill="#000000" fill-rule="nonzero" fill-opacity="1" /><path clip-path="url(#clip540)" d="M99.765 1152.42 Q96.1539 1152.42 94.3252 1155.99 Q92.5197 1159.53 92.5197 1166.66 Q92.5197 1173.77 94.3252 1177.33 Q96.1539 1180.87 99.765 1180.87 Q103.399 1180.87 105.205 1177.33 Q107.033 1173.77 107.033 1166.66 Q107.033 1159.53 105.205 1155.99 Q103.399 1152.42 99.765 1152.42 M99.765 1148.72 Q105.575 1148.72 108.631 1153.33 Q111.709 1157.91 111.709 1166.66 Q111.709 1175.39 108.631 1179.99 Q105.575 1184.58 99.765 1184.58 Q93.9549 1184.58 90.8762 1179.99 Q87.8206 1175.39 87.8206 1166.66 Q87.8206 1157.91 90.8762 1153.33 Q93.9549 1148.72 99.765 1148.72 Z" fill="#000000" fill-rule="nonzero" fill-opacity="1" /><path clip-path="url(#clip540)" d="M119.927 1178.03 L124.811 1178.03 L124.811 1183.9 L119.927 1183.9 L119.927 1178.03 Z" fill="#000000" fill-rule="nonzero" fill-opacity="1" /><path clip-path="url(#clip540)" d="M144.996 1152.42 Q141.385 1152.42 139.556 1155.99 Q137.751 1159.53 137.751 1166.66 Q137.751 1173.77 139.556 1177.33 Q141.385 1180.87 144.996 1180.87 Q148.63 1180.87 150.436 1177.33 Q152.265 1173.77 152.265 1166.66 Q152.265 1159.53 150.436 1155.99 Q148.63 1152.42 144.996 1152.42 M144.996 1148.72 Q150.806 1148.72 153.862 1153.33 Q156.941 1157.91 156.941 1166.66 Q156.941 1175.39 153.862 1179.99 Q150.806 1184.58 144.996 1184.58 Q139.186 1184.58 136.107 1179.99 Q133.052 1175.39 133.052 1166.66 Q133.052 1157.91 136.107 1153.33 Q139.186 1148.72 144.996 1148.72 Z" fill="#000000" fill-rule="nonzero" fill-opacity="1" /><path clip-path="url(#clip540)" d="M175.158 1152.42 Q171.547 1152.42 169.718 1155.99 Q167.913 1159.53 167.913 1166.66 Q167.913 1173.77 169.718 1177.33 Q171.547 1180.87 175.158 1180.87 Q178.792 1180.87 180.598 1177.33 Q182.427 1173.77 182.427 1166.66 Q182.427 1159.53 180.598 1155.99 Q178.792 1152.42 175.158 1152.42 M175.158 1148.72 Q180.968 1148.72 184.024 1153.33 Q187.103 1157.91 187.103 1166.66 Q187.103 1175.39 184.024 1179.99 Q180.968 1184.58 175.158 1184.58 Q169.348 1184.58 166.269 1179.99 Q163.214 1175.39 163.214 1166.66 Q163.214 1157.91 166.269 1153.33 Q169.348 1148.72 175.158 1148.72 Z" fill="#000000" fill-rule="nonzero" fill-opacity="1" /><path clip-path="url(#clip540)" d="M100.76 952.534 Q97.1493 952.534 95.3206 956.099 Q93.515 959.641 93.515 966.77 Q93.515 973.877 95.3206 977.441 Q97.1493 980.983 100.76 980.983 Q104.395 980.983 106.2 977.441 Q108.029 973.877 108.029 966.77 Q108.029 959.641 106.2 956.099 Q104.395 952.534 100.76 952.534 M100.76 948.83 Q106.571 948.83 109.626 953.437 Q112.705 958.02 112.705 966.77 Q112.705 975.497 109.626 980.103 Q106.571 984.687 100.76 984.687 Q94.9502 984.687 91.8715 980.103 Q88.816 975.497 88.816 966.77 Q88.816 958.02 91.8715 953.437 Q94.9502 948.83 100.76 948.83 Z" fill="#000000" fill-rule="nonzero" fill-opacity="1" /><path clip-path="url(#clip540)" d="M120.922 978.136 L125.807 978.136 L125.807 984.015 L120.922 984.015 L120.922 978.136 Z" fill="#000000" fill-rule="nonzero" fill-opacity="1" /><path clip-path="url(#clip540)" d="M140.019 980.08 L156.339 980.08 L156.339 984.015 L134.394 984.015 L134.394 980.08 Q137.056 977.326 141.64 972.696 Q146.246 968.043 147.427 966.701 Q149.672 964.178 150.552 962.441 Q151.455 960.682 151.455 958.992 Q151.455 956.238 149.51 954.502 Q147.589 952.766 144.487 952.766 Q142.288 952.766 139.834 953.529 Q137.404 954.293 134.626 955.844 L134.626 951.122 Q137.45 949.988 139.904 949.409 Q142.357 948.83 144.394 948.83 Q149.765 948.83 152.959 951.516 Q156.154 954.201 156.154 958.691 Q156.154 960.821 155.343 962.742 Q154.556 964.641 152.45 967.233 Q151.871 967.904 148.769 971.122 Q145.668 974.316 140.019 980.08 Z" fill="#000000" fill-rule="nonzero" fill-opacity="1" /><path clip-path="url(#clip540)" d="M166.2 949.455 L184.556 949.455 L184.556 953.391 L170.482 953.391 L170.482 961.863 Q171.501 961.516 172.519 961.353 Q173.538 961.168 174.556 961.168 Q180.343 961.168 183.723 964.34 Q187.103 967.511 187.103 972.927 Q187.103 978.506 183.63 981.608 Q180.158 984.687 173.839 984.687 Q171.663 984.687 169.394 984.316 Q167.149 983.946 164.742 983.205 L164.742 978.506 Q166.825 979.64 169.047 980.196 Q171.269 980.752 173.746 980.752 Q177.751 980.752 180.089 978.645 Q182.427 976.539 182.427 972.927 Q182.427 969.316 180.089 967.21 Q177.751 965.103 173.746 965.103 Q171.871 965.103 169.996 965.52 Q168.144 965.937 166.2 966.816 L166.2 949.455 Z" fill="#000000" fill-rule="nonzero" fill-opacity="1" /><path clip-path="url(#clip540)" d="M99.765 752.645 Q96.1539 752.645 94.3252 756.209 Q92.5197 759.751 92.5197 766.881 Q92.5197 773.987 94.3252 777.552 Q96.1539 781.094 99.765 781.094 Q103.399 781.094 105.205 777.552 Q107.033 773.987 107.033 766.881 Q107.033 759.751 105.205 756.209 Q103.399 752.645 99.765 752.645 M99.765 748.941 Q105.575 748.941 108.631 753.547 Q111.709 758.131 111.709 766.881 Q111.709 775.608 108.631 780.214 Q105.575 784.797 99.765 784.797 Q93.9549 784.797 90.8762 780.214 Q87.8206 775.608 87.8206 766.881 Q87.8206 758.131 90.8762 753.547 Q93.9549 748.941 99.765 748.941 Z" fill="#000000" fill-rule="nonzero" fill-opacity="1" /><path clip-path="url(#clip540)" d="M119.927 778.246 L124.811 778.246 L124.811 784.126 L119.927 784.126 L119.927 778.246 Z" fill="#000000" fill-rule="nonzero" fill-opacity="1" /><path clip-path="url(#clip540)" d="M135.043 749.566 L153.399 749.566 L153.399 753.501 L139.325 753.501 L139.325 761.973 Q140.343 761.626 141.362 761.464 Q142.381 761.279 143.399 761.279 Q149.186 761.279 152.566 764.45 Q155.945 767.621 155.945 773.038 Q155.945 778.617 152.473 781.719 Q149.001 784.797 142.681 784.797 Q140.506 784.797 138.237 784.427 Q135.992 784.057 133.584 783.316 L133.584 778.617 Q135.668 779.751 137.89 780.307 Q140.112 780.862 142.589 780.862 Q146.593 780.862 148.931 778.756 Q151.269 776.649 151.269 773.038 Q151.269 769.427 148.931 767.321 Q146.593 765.214 142.589 765.214 Q140.714 765.214 138.839 765.631 Q136.987 766.047 135.043 766.927 L135.043 749.566 Z" fill="#000000" fill-rule="nonzero" fill-opacity="1" /><path clip-path="url(#clip540)" d="M175.158 752.645 Q171.547 752.645 169.718 756.209 Q167.913 759.751 167.913 766.881 Q167.913 773.987 169.718 777.552 Q171.547 781.094 175.158 781.094 Q178.792 781.094 180.598 777.552 Q182.427 773.987 182.427 766.881 Q182.427 759.751 180.598 756.209 Q178.792 752.645 175.158 752.645 M175.158 748.941 Q180.968 748.941 184.024 753.547 Q187.103 758.131 187.103 766.881 Q187.103 775.608 184.024 780.214 Q180.968 784.797 175.158 784.797 Q169.348 784.797 166.269 780.214 Q163.214 775.608 163.214 766.881 Q163.214 758.131 166.269 753.547 Q169.348 748.941 175.158 748.941 Z" fill="#000000" fill-rule="nonzero" fill-opacity="1" /><path clip-path="url(#clip540)" d="M100.76 552.755 Q97.1493 552.755 95.3206 556.32 Q93.515 559.862 93.515 566.991 Q93.515 574.098 95.3206 577.663 Q97.1493 581.204 100.76 581.204 Q104.395 581.204 106.2 577.663 Q108.029 574.098 108.029 566.991 Q108.029 559.862 106.2 556.32 Q104.395 552.755 100.76 552.755 M100.76 549.052 Q106.571 549.052 109.626 553.658 Q112.705 558.241 112.705 566.991 Q112.705 575.718 109.626 580.325 Q106.571 584.908 100.76 584.908 Q94.9502 584.908 91.8715 580.325 Q88.816 575.718 88.816 566.991 Q88.816 558.241 91.8715 553.658 Q94.9502 549.052 100.76 549.052 Z" fill="#000000" fill-rule="nonzero" fill-opacity="1" /><path clip-path="url(#clip540)" d="M120.922 578.357 L125.807 578.357 L125.807 584.237 L120.922 584.237 L120.922 578.357 Z" fill="#000000" fill-rule="nonzero" fill-opacity="1" /><path clip-path="url(#clip540)" d="M134.811 549.677 L157.033 549.677 L157.033 551.667 L144.487 584.237 L139.603 584.237 L151.408 553.612 L134.811 553.612 L134.811 549.677 Z" fill="#000000" fill-rule="nonzero" fill-opacity="1" /><path clip-path="url(#clip540)" d="M166.2 549.677 L184.556 549.677 L184.556 553.612 L170.482 553.612 L170.482 562.084 Q171.501 561.737 172.519 561.575 Q173.538 561.389 174.556 561.389 Q180.343 561.389 183.723 564.561 Q187.103 567.732 187.103 573.149 Q187.103 578.727 183.63 581.829 Q180.158 584.908 173.839 584.908 Q171.663 584.908 169.394 584.537 Q167.149 584.167 164.742 583.426 L164.742 578.727 Q166.825 579.862 169.047 580.417 Q171.269 580.973 173.746 580.973 Q177.751 580.973 180.089 578.866 Q182.427 576.76 182.427 573.149 Q182.427 569.538 180.089 567.431 Q177.751 565.325 173.746 565.325 Q171.871 565.325 169.996 565.741 Q168.144 566.158 166.2 567.038 L166.2 549.677 Z" fill="#000000" fill-rule="nonzero" fill-opacity="1" /><path clip-path="url(#clip540)" d="M90.5752 380.412 L98.2141 380.412 L98.2141 354.046 L89.904 355.713 L89.904 351.454 L98.1678 349.787 L102.844 349.787 L102.844 380.412 L110.483 380.412 L110.483 384.347 L90.5752 384.347 L90.5752 380.412 Z" fill="#000000" fill-rule="nonzero" fill-opacity="1" /><path clip-path="url(#clip540)" d="M119.927 378.468 L124.811 378.468 L124.811 384.347 L119.927 384.347 L119.927 378.468 Z" fill="#000000" fill-rule="nonzero" fill-opacity="1" /><path clip-path="url(#clip540)" d="M144.996 352.866 Q141.385 352.866 139.556 356.431 Q137.751 359.972 137.751 367.102 Q137.751 374.208 139.556 377.773 Q141.385 381.315 144.996 381.315 Q148.63 381.315 150.436 377.773 Q152.265 374.208 152.265 367.102 Q152.265 359.972 150.436 356.431 Q148.63 352.866 144.996 352.866 M144.996 349.162 Q150.806 349.162 153.862 353.769 Q156.941 358.352 156.941 367.102 Q156.941 375.829 153.862 380.435 Q150.806 385.018 144.996 385.018 Q139.186 385.018 136.107 380.435 Q133.052 375.829 133.052 367.102 Q133.052 358.352 136.107 353.769 Q139.186 349.162 144.996 349.162 Z" fill="#000000" fill-rule="nonzero" fill-opacity="1" /><path clip-path="url(#clip540)" d="M175.158 352.866 Q171.547 352.866 169.718 356.431 Q167.913 359.972 167.913 367.102 Q167.913 374.208 169.718 377.773 Q171.547 381.315 175.158 381.315 Q178.792 381.315 180.598 377.773 Q182.427 374.208 182.427 367.102 Q182.427 359.972 180.598 356.431 Q178.792 352.866 175.158 352.866 M175.158 349.162 Q180.968 349.162 184.024 353.769 Q187.103 358.352 187.103 367.102 Q187.103 375.829 184.024 380.435 Q180.968 385.018 175.158 385.018 Q169.348 385.018 166.269 380.435 Q163.214 375.829 163.214 367.102 Q163.214 358.352 166.269 353.769 Q169.348 349.162 175.158 349.162 Z" fill="#000000" fill-rule="nonzero" fill-opacity="1" /><path clip-path="url(#clip540)" d="M91.5706 180.523 L99.2095 180.523 L99.2095 154.157 L90.8993 155.824 L90.8993 151.564 L99.1632 149.898 L103.839 149.898 L103.839 180.523 L111.478 180.523 L111.478 184.458 L91.5706 184.458 L91.5706 180.523 Z" fill="#000000" fill-rule="nonzero" fill-opacity="1" /><path clip-path="url(#clip540)" d="M120.922 178.578 L125.807 178.578 L125.807 184.458 L120.922 184.458 L120.922 178.578 Z" fill="#000000" fill-rule="nonzero" fill-opacity="1" /><path clip-path="url(#clip540)" d="M140.019 180.523 L156.339 180.523 L156.339 184.458 L134.394 184.458 L134.394 180.523 Q137.056 177.768 141.64 173.138 Q146.246 168.486 147.427 167.143 Q149.672 164.62 150.552 162.884 Q151.455 161.125 151.455 159.435 Q151.455 156.68 149.51 154.944 Q147.589 153.208 144.487 153.208 Q142.288 153.208 139.834 153.972 Q137.404 154.736 134.626 156.287 L134.626 151.564 Q137.45 150.43 139.904 149.851 Q142.357 149.273 144.394 149.273 Q149.765 149.273 152.959 151.958 Q156.154 154.643 156.154 159.134 Q156.154 161.263 155.343 163.185 Q154.556 165.083 152.45 167.675 Q151.871 168.347 148.769 171.564 Q145.668 174.759 140.019 180.523 Z" fill="#000000" fill-rule="nonzero" fill-opacity="1" /><path clip-path="url(#clip540)" d="M166.2 149.898 L184.556 149.898 L184.556 153.833 L170.482 153.833 L170.482 162.305 Q171.501 161.958 172.519 161.796 Q173.538 161.611 174.556 161.611 Q180.343 161.611 183.723 164.782 Q187.103 167.953 187.103 173.37 Q187.103 178.949 183.63 182.05 Q180.158 185.129 173.839 185.129 Q171.663 185.129 169.394 184.759 Q167.149 184.388 164.742 183.648 L164.742 178.949 Q166.825 180.083 169.047 180.638 Q171.269 181.194 173.746 181.194 Q177.751 181.194 180.089 179.087 Q182.427 176.981 182.427 173.37 Q182.427 169.759 180.089 167.652 Q177.751 165.546 173.746 165.546 Q171.871 165.546 169.996 165.962 Q168.144 166.379 166.2 167.259 L166.2 149.898 Z" fill="#000000" fill-rule="nonzero" fill-opacity="1" /><path clip-path="url(#clip541)" d="M1642.87 207.156 L1169.62 207.156 L1169.62 526.979 L1642.87 526.979 L1642.87 207.156 L1642.87 207.156  Z" fill="#ffffff" fill-rule="evenodd" fill-opacity="0.5"/>
<polyline clip-path="url(#clip541)" style="stroke:#000000; stroke-linecap:round; stroke-linejoin:round; stroke-width:4; stroke-opacity:0.5; fill:none" points="1642.87,207.156 1169.62,207.156 1169.62,526.979 1642.87,526.979 1642.87,207.156 "/>
<path clip-path="url(#clip541)" d="M1896.32 940.476 L1561.67 1166.62 L1896.32 1392.77 L2230.96 1166.62 L1896.32 940.476 L1896.32 940.476  Z" fill="#ffffff" fill-rule="evenodd" fill-opacity="0.5"/>
<polyline clip-path="url(#clip541)" style="stroke:#000000; stroke-linecap:round; stroke-linejoin:round; stroke-width:4; stroke-opacity:0.5; fill:none" points="1896.32,940.476 1561.67,1166.62 1896.32,1392.77 2230.96,1166.62 1896.32,940.476 "/>
<circle clip-path="url(#clip541)" cx="1406.24" cy="367.067" r="14.4" fill="#3da44d" fill-rule="evenodd" fill-opacity="0.5" stroke="#000000" stroke-opacity="0.5" stroke-width="3.2"/>
<circle clip-path="url(#clip541)" cx="1642.87" cy="207.156" r="14.4" fill="#c271d2" fill-rule="evenodd" fill-opacity="0.5" stroke="#000000" stroke-opacity="0.5" stroke-width="3.2"/>
<circle clip-path="url(#clip541)" cx="1169.62" cy="207.156" r="14.4" fill="#c271d2" fill-rule="evenodd" fill-opacity="0.5" stroke="#000000" stroke-opacity="0.5" stroke-width="3.2"/>
<circle clip-path="url(#clip541)" cx="1642.87" cy="526.979" r="14.4" fill="#c271d2" fill-rule="evenodd" fill-opacity="0.5" stroke="#000000" stroke-opacity="0.5" stroke-width="3.2"/>
<circle clip-path="url(#clip541)" cx="1169.62" cy="526.979" r="14.4" fill="#c271d2" fill-rule="evenodd" fill-opacity="0.5" stroke="#000000" stroke-opacity="0.5" stroke-width="3.2"/>
<circle clip-path="url(#clip541)" cx="1896.32" cy="1166.62" r="14.4" fill="#ac8d18" fill-rule="evenodd" fill-opacity="0.5" stroke="#000000" stroke-opacity="0.5" stroke-width="3.2"/>
<circle clip-path="url(#clip541)" cx="2230.96" cy="1166.62" r="14.4" fill="#00a9ad" fill-rule="evenodd" fill-opacity="0.5" stroke="#000000" stroke-opacity="0.5" stroke-width="3.2"/>
<circle clip-path="url(#clip541)" cx="1896.32" cy="940.476" r="14.4" fill="#00a9ad" fill-rule="evenodd" fill-opacity="0.5" stroke="#000000" stroke-opacity="0.5" stroke-width="3.2"/>
<circle clip-path="url(#clip541)" cx="1896.32" cy="1392.77" r="14.4" fill="#00a9ad" fill-rule="evenodd" fill-opacity="0.5" stroke="#000000" stroke-opacity="0.5" stroke-width="3.2"/>
<circle clip-path="url(#clip541)" cx="1561.67" cy="1166.62" r="14.4" fill="#00a9ad" fill-rule="evenodd" fill-opacity="0.5" stroke="#000000" stroke-opacity="0.5" stroke-width="3.2"/>
<circle clip-path="url(#clip541)" cx="1214.91" cy="460.369" r="14.4" fill="#ed5d92" fill-rule="evenodd" fill-opacity="0.5" stroke="#000000" stroke-opacity="0.5" stroke-width="3.2"/>
<circle clip-path="url(#clip541)" cx="1295.4" cy="324.756" r="14.4" fill="#ed5d92" fill-rule="evenodd" fill-opacity="0.5" stroke="#000000" stroke-opacity="0.5" stroke-width="3.2"/>
<circle clip-path="url(#clip541)" cx="1516.47" cy="298.951" r="14.4" fill="#ed5d92" fill-rule="evenodd" fill-opacity="0.5" stroke="#000000" stroke-opacity="0.5" stroke-width="3.2"/>
<circle clip-path="url(#clip541)" cx="1369.8" cy="375" r="14.4" fill="#ed5d92" fill-rule="evenodd" fill-opacity="0.5" stroke="#000000" stroke-opacity="0.5" stroke-width="3.2"/>
<circle clip-path="url(#clip541)" cx="1477.87" cy="505.15" r="14.4" fill="#ed5d92" fill-rule="evenodd" fill-opacity="0.5" stroke="#000000" stroke-opacity="0.5" stroke-width="3.2"/>
<circle clip-path="url(#clip541)" cx="1346.26" cy="514.169" r="14.4" fill="#ed5d92" fill-rule="evenodd" fill-opacity="0.5" stroke="#000000" stroke-opacity="0.5" stroke-width="3.2"/>
<circle clip-path="url(#clip541)" cx="1175.91" cy="301.048" r="14.4" fill="#ed5d92" fill-rule="evenodd" fill-opacity="0.5" stroke="#000000" stroke-opacity="0.5" stroke-width="3.2"/>
<circle clip-path="url(#clip541)" cx="1637.36" cy="372.076" r="14.4" fill="#ed5d92" fill-rule="evenodd" fill-opacity="0.5" stroke="#000000" stroke-opacity="0.5" stroke-width="3.2"/>
<circle clip-path="url(#clip541)" cx="1604.62" cy="330.293" r="14.4" fill="#ed5d92" fill-rule="evenodd" fill-opacity="0.5" stroke="#000000" stroke-opacity="0.5" stroke-width="3.2"/>
<circle clip-path="url(#clip541)" cx="1454.98" cy="234.241" r="14.4" fill="#ed5d92" fill-rule="evenodd" fill-opacity="0.5" stroke="#000000" stroke-opacity="0.5" stroke-width="3.2"/>
<circle clip-path="url(#clip541)" cx="1441.78" cy="432.628" r="14.4" fill="#ed5d92" fill-rule="evenodd" fill-opacity="0.5" stroke="#000000" stroke-opacity="0.5" stroke-width="3.2"/>
<circle clip-path="url(#clip541)" cx="1178.14" cy="444.257" r="14.4" fill="#ed5d92" fill-rule="evenodd" fill-opacity="0.5" stroke="#000000" stroke-opacity="0.5" stroke-width="3.2"/>
<circle clip-path="url(#clip541)" cx="1299.35" cy="260.49" r="14.4" fill="#ed5d92" fill-rule="evenodd" fill-opacity="0.5" stroke="#000000" stroke-opacity="0.5" stroke-width="3.2"/>
<circle clip-path="url(#clip541)" cx="1186.55" cy="294.455" r="14.4" fill="#ed5d92" fill-rule="evenodd" fill-opacity="0.5" stroke="#000000" stroke-opacity="0.5" stroke-width="3.2"/>
<circle clip-path="url(#clip541)" cx="1320.71" cy="238.064" r="14.4" fill="#ed5d92" fill-rule="evenodd" fill-opacity="0.5" stroke="#000000" stroke-opacity="0.5" stroke-width="3.2"/>
<circle clip-path="url(#clip541)" cx="1588.26" cy="214.211" r="14.4" fill="#ed5d92" fill-rule="evenodd" fill-opacity="0.5" stroke="#000000" stroke-opacity="0.5" stroke-width="3.2"/>
<circle clip-path="url(#clip541)" cx="1571.9" cy="465.949" r="14.4" fill="#ed5d92" fill-rule="evenodd" fill-opacity="0.5" stroke="#000000" stroke-opacity="0.5" stroke-width="3.2"/>
<circle clip-path="url(#clip541)" cx="1624.1" cy="400.537" r="14.4" fill="#ed5d92" fill-rule="evenodd" fill-opacity="0.5" stroke="#000000" stroke-opacity="0.5" stroke-width="3.2"/>
<circle clip-path="url(#clip541)" cx="1342.22" cy="418.246" r="14.4" fill="#ed5d92" fill-rule="evenodd" fill-opacity="0.5" stroke="#000000" stroke-opacity="0.5" stroke-width="3.2"/>
<circle clip-path="url(#clip541)" cx="1634.8" cy="386.227" r="14.4" fill="#ed5d92" fill-rule="evenodd" fill-opacity="0.5" stroke="#000000" stroke-opacity="0.5" stroke-width="3.2"/>
<circle clip-path="url(#clip541)" cx="1229.78" cy="377.441" r="14.4" fill="#ed5d92" fill-rule="evenodd" fill-opacity="0.5" stroke="#000000" stroke-opacity="0.5" stroke-width="3.2"/>
<circle clip-path="url(#clip541)" cx="1404" cy="503.284" r="14.4" fill="#ed5d92" fill-rule="evenodd" fill-opacity="0.5" stroke="#000000" stroke-opacity="0.5" stroke-width="3.2"/>
<circle clip-path="url(#clip541)" cx="1423.73" cy="340.776" r="14.4" fill="#ed5d92" fill-rule="evenodd" fill-opacity="0.5" stroke="#000000" stroke-opacity="0.5" stroke-width="3.2"/>
<circle clip-path="url(#clip541)" cx="1340.78" cy="260.642" r="14.4" fill="#ed5d92" fill-rule="evenodd" fill-opacity="0.5" stroke="#000000" stroke-opacity="0.5" stroke-width="3.2"/>
<circle clip-path="url(#clip541)" cx="1195.81" cy="335.106" r="14.4" fill="#ed5d92" fill-rule="evenodd" fill-opacity="0.5" stroke="#000000" stroke-opacity="0.5" stroke-width="3.2"/>
<circle clip-path="url(#clip541)" cx="1663.4" cy="1141.17" r="14.4" fill="#0000ff" fill-rule="evenodd" fill-opacity="0.5" stroke="#000000" stroke-opacity="0.5" stroke-width="3.2"/>
<circle clip-path="url(#clip541)" cx="1862.21" cy="1083.74" r="14.4" fill="#0000ff" fill-rule="evenodd" fill-opacity="0.5" stroke="#000000" stroke-opacity="0.5" stroke-width="3.2"/>
<circle clip-path="url(#clip541)" cx="2045.53" cy="1171.13" r="14.4" fill="#0000ff" fill-rule="evenodd" fill-opacity="0.5" stroke="#000000" stroke-opacity="0.5" stroke-width="3.2"/>
<circle clip-path="url(#clip541)" cx="1862.25" cy="1154.82" r="14.4" fill="#0000ff" fill-rule="evenodd" fill-opacity="0.5" stroke="#000000" stroke-opacity="0.5" stroke-width="3.2"/>
<circle clip-path="url(#clip541)" cx="1802.48" cy="1298.49" r="14.4" fill="#0000ff" fill-rule="evenodd" fill-opacity="0.5" stroke="#000000" stroke-opacity="0.5" stroke-width="3.2"/>
<circle clip-path="url(#clip541)" cx="1699.98" cy="1241.98" r="14.4" fill="#0000ff" fill-rule="evenodd" fill-opacity="0.5" stroke="#000000" stroke-opacity="0.5" stroke-width="3.2"/>
<circle clip-path="url(#clip541)" cx="1802.52" cy="1009.87" r="14.4" fill="#0000ff" fill-rule="evenodd" fill-opacity="0.5" stroke="#000000" stroke-opacity="0.5" stroke-width="3.2"/>
<circle clip-path="url(#clip541)" cx="2054.5" cy="1280.61" r="14.4" fill="#0000ff" fill-rule="evenodd" fill-opacity="0.5" stroke="#000000" stroke-opacity="0.5" stroke-width="3.2"/>
<circle clip-path="url(#clip541)" cx="2075.07" cy="1235.42" r="14.4" fill="#0000ff" fill-rule="evenodd" fill-opacity="0.5" stroke="#000000" stroke-opacity="0.5" stroke-width="3.2"/>
<circle clip-path="url(#clip541)" cx="2069.76" cy="1095.99" r="14.4" fill="#0000ff" fill-rule="evenodd" fill-opacity="0.5" stroke="#000000" stroke-opacity="0.5" stroke-width="3.2"/>
<circle clip-path="url(#clip541)" cx="1852.85" cy="1229.97" r="14.4" fill="#0000ff" fill-rule="evenodd" fill-opacity="0.5" stroke="#000000" stroke-opacity="0.5" stroke-width="3.2"/>
<circle clip-path="url(#clip541)" cx="1654.26" cy="1112.21" r="14.4" fill="#0000ff" fill-rule="evenodd" fill-opacity="0.5" stroke="#000000" stroke-opacity="0.5" stroke-width="3.2"/>
<circle clip-path="url(#clip541)" cx="1932.25" cy="1040.18" r="14.4" fill="#0000ff" fill-rule="evenodd" fill-opacity="0.5" stroke="#000000" stroke-opacity="0.5" stroke-width="3.2"/>
<circle clip-path="url(#clip541)" cx="1816.95" cy="1010.3" r="14.4" fill="#0000ff" fill-rule="evenodd" fill-opacity="0.5" stroke="#000000" stroke-opacity="0.5" stroke-width="3.2"/>
<circle clip-path="url(#clip541)" cx="1970.82" cy="1034.54" r="14.4" fill="#0000ff" fill-rule="evenodd" fill-opacity="0.5" stroke="#000000" stroke-opacity="0.5" stroke-width="3.2"/>
<circle clip-path="url(#clip541)" cx="2184.96" cy="1145.52" r="14.4" fill="#0000ff" fill-rule="evenodd" fill-opacity="0.5" stroke="#000000" stroke-opacity="0.5" stroke-width="3.2"/>
<circle clip-path="url(#clip541)" cx="1909.99" cy="1315.7" r="14.4" fill="#0000ff" fill-rule="evenodd" fill-opacity="0.5" stroke="#000000" stroke-opacity="0.5" stroke-width="3.2"/>
<circle clip-path="url(#clip541)" cx="2015.35" cy="1294.4" r="14.4" fill="#0000ff" fill-rule="evenodd" fill-opacity="0.5" stroke="#000000" stroke-opacity="0.5" stroke-width="3.2"/>
<circle clip-path="url(#clip541)" cx="1797.49" cy="1172.22" r="14.4" fill="#0000ff" fill-rule="evenodd" fill-opacity="0.5" stroke="#000000" stroke-opacity="0.5" stroke-width="3.2"/>
<circle clip-path="url(#clip541)" cx="2037.89" cy="1289.39" r="14.4" fill="#0000ff" fill-rule="evenodd" fill-opacity="0.5" stroke="#000000" stroke-opacity="0.5" stroke-width="3.2"/>
<circle clip-path="url(#clip541)" cx="1760.68" cy="1089.64" r="14.4" fill="#0000ff" fill-rule="evenodd" fill-opacity="0.5" stroke="#000000" stroke-opacity="0.5" stroke-width="3.2"/>
<circle clip-path="url(#clip541)" cx="1752.2" cy="1261.87" r="14.4" fill="#0000ff" fill-rule="evenodd" fill-opacity="0.5" stroke="#000000" stroke-opacity="0.5" stroke-width="3.2"/>
<circle clip-path="url(#clip541)" cx="1936.19" cy="1156.39" r="14.4" fill="#0000ff" fill-rule="evenodd" fill-opacity="0.5" stroke="#000000" stroke-opacity="0.5" stroke-width="3.2"/>
<circle clip-path="url(#clip541)" cx="1961.38" cy="1060.09" r="14.4" fill="#0000ff" fill-rule="evenodd" fill-opacity="0.5" stroke="#000000" stroke-opacity="0.5" stroke-width="3.2"/>
<circle clip-path="url(#clip541)" cx="1780.96" cy="1043.47" r="14.4" fill="#0000ff" fill-rule="evenodd" fill-opacity="0.5" stroke="#000000" stroke-opacity="0.5" stroke-width="3.2"/>
<path clip-path="url(#clip541)" d="M1642.87 207.156 L1169.62 207.156 L1169.62 526.979 L1642.87 526.979 L1642.87 207.156 L1642.87 207.156  Z" fill="#ffffff" fill-rule="evenodd" fill-opacity="0.5"/>
<polyline clip-path="url(#clip541)" style="stroke:#000000; stroke-linecap:round; stroke-linejoin:round; stroke-width:4; stroke-opacity:0.5; fill:none" points="1642.87,207.156 1169.62,207.156 1169.62,526.979 1642.87,526.979 1642.87,207.156 "/>
<path clip-path="url(#clip541)" d="M1896.32 940.476 L1561.67 1166.62 L1896.32 1392.77 L2230.96 1166.62 L1896.32 940.476 L1896.32 940.476  Z" fill="#ffffff" fill-rule="evenodd" fill-opacity="0.5"/>
<polyline clip-path="url(#clip541)" style="stroke:#000000; stroke-linecap:round; stroke-linejoin:round; stroke-width:4; stroke-opacity:0.5; fill:none" points="1896.32,940.476 1561.67,1166.62 1896.32,1392.77 2230.96,1166.62 1896.32,940.476 "/>
<path clip-path="url(#clip541)" d="M1642.87 1806.27 L1169.62 1806.27 L1169.62 2126.09 L1642.87 2126.09 L1642.87 1806.27 L1642.87 1806.27  Z" fill="#ffffff" fill-rule="evenodd" fill-opacity="0.5"/>
<polyline clip-path="url(#clip541)" style="stroke:#000000; stroke-linecap:round; stroke-linejoin:round; stroke-width:4; stroke-opacity:0.5; fill:none" points="1642.87,1806.27 1169.62,1806.27 1169.62,2126.09 1642.87,2126.09 1642.87,1806.27 "/>
<path clip-path="url(#clip541)" d="M-1306.49 655.523 L-1716.34 815.435 L-1479.71 1092.41 L-1069.86 932.498 L-1306.49 655.523 L-1306.49 655.523  Z" fill="#ffffff" fill-rule="evenodd" fill-opacity="0.5"/>
<polyline clip-path="url(#clip541)" style="stroke:#000000; stroke-linecap:round; stroke-linejoin:round; stroke-width:4; stroke-opacity:0.5; fill:none" points="-1306.49,655.523 -1716.34,815.435 -1479.71,1092.41 -1069.86,932.498 -1306.49,655.523 "/>
</svg>
