<?xml version="1.0" encoding="utf-8"?>
<svg xmlns="http://www.w3.org/2000/svg" xmlns:xlink="http://www.w3.org/1999/xlink" width="600" height="400" viewBox="0 0 2400 1600">
<defs>
  <clipPath id="clip070">
    <rect x="0" y="0" width="2400" height="1600"/>
  </clipPath>
</defs>
<path clip-path="url(#clip070)" d="M0 1600 L2400 1600 L2400 0 L0 0  Z" fill="#ffffff" fill-rule="evenodd" fill-opacity="1"/>
<defs>
  <clipPath id="clip071">
    <rect x="480" y="0" width="1681" height="1600"/>
  </clipPath>
</defs>
<path clip-path="url(#clip070)" d="M219.38 1423.18 L2352.76 1423.18 L2352.76 47.2441 L219.38 47.2441  Z" fill="#ffffff" fill-rule="evenodd" fill-opacity="1"/>
<defs>
  <clipPath id="clip072">
    <rect x="219" y="47" width="2134" height="1377"/>
  </clipPath>
</defs>
<polyline clip-path="url(#clip072)" style="stroke:#000000; stroke-linecap:round; stroke-linejoin:round; stroke-width:2; stroke-opacity:0.1; fill:none" points="279.759,1423.18 279.759,47.2441 "/>
<polyline clip-path="url(#clip072)" style="stroke:#000000; stroke-linecap:round; stroke-linejoin:round; stroke-width:2; stroke-opacity:0.1; fill:none" points="682.282,1423.18 682.282,47.2441 "/>
<polyline clip-path="url(#clip072)" style="stroke:#000000; stroke-linecap:round; stroke-linejoin:round; stroke-width:2; stroke-opacity:0.1; fill:none" points="1084.81,1423.18 1084.81,47.2441 "/>
<polyline clip-path="url(#clip072)" style="stroke:#000000; stroke-linecap:round; stroke-linejoin:round; stroke-width:2; stroke-opacity:0.1; fill:none" points="1487.33,1423.18 1487.33,47.2441 "/>
<polyline clip-path="url(#clip072)" style="stroke:#000000; stroke-linecap:round; stroke-linejoin:round; stroke-width:2; stroke-opacity:0.1; fill:none" points="1889.85,1423.18 1889.85,47.2441 "/>
<polyline clip-path="url(#clip072)" style="stroke:#000000; stroke-linecap:round; stroke-linejoin:round; stroke-width:2; stroke-opacity:0.1; fill:none" points="2292.38,1423.18 2292.38,47.2441 "/>
<polyline clip-path="url(#clip072)" style="stroke:#000000; stroke-linecap:round; stroke-linejoin:round; stroke-width:2; stroke-opacity:0.1; fill:none" points="219.38,1388.61 2352.76,1388.61 "/>
<polyline clip-path="url(#clip072)" style="stroke:#000000; stroke-linecap:round; stroke-linejoin:round; stroke-width:2; stroke-opacity:0.1; fill:none" points="219.38,1063.01 2352.76,1063.01 "/>
<polyline clip-path="url(#clip072)" style="stroke:#000000; stroke-linecap:round; stroke-linejoin:round; stroke-width:2; stroke-opacity:0.1; fill:none" points="219.38,737.4 2352.76,737.4 "/>
<polyline clip-path="url(#clip072)" style="stroke:#000000; stroke-linecap:round; stroke-linejoin:round; stroke-width:2; stroke-opacity:0.1; fill:none" points="219.38,411.793 2352.76,411.793 "/>
<polyline clip-path="url(#clip072)" style="stroke:#000000; stroke-linecap:round; stroke-linejoin:round; stroke-width:2; stroke-opacity:0.1; fill:none" points="219.38,86.1857 2352.76,86.1857 "/>
<polyline clip-path="url(#clip070)" style="stroke:#000000; stroke-linecap:round; stroke-linejoin:round; stroke-width:4; stroke-opacity:1; fill:none" points="219.38,1423.18 2352.76,1423.18 "/>
<polyline clip-path="url(#clip070)" style="stroke:#000000; stroke-linecap:round; stroke-linejoin:round; stroke-width:4; stroke-opacity:1; fill:none" points="279.759,1423.18 279.759,1404.28 "/>
<polyline clip-path="url(#clip070)" style="stroke:#000000; stroke-linecap:round; stroke-linejoin:round; stroke-width:4; stroke-opacity:1; fill:none" points="682.282,1423.18 682.282,1404.28 "/>
<polyline clip-path="url(#clip070)" style="stroke:#000000; stroke-linecap:round; stroke-linejoin:round; stroke-width:4; stroke-opacity:1; fill:none" points="1084.81,1423.18 1084.81,1404.28 "/>
<polyline clip-path="url(#clip070)" style="stroke:#000000; stroke-linecap:round; stroke-linejoin:round; stroke-width:4; stroke-opacity:1; fill:none" points="1487.33,1423.18 1487.33,1404.28 "/>
<polyline clip-path="url(#clip070)" style="stroke:#000000; stroke-linecap:round; stroke-linejoin:round; stroke-width:4; stroke-opacity:1; fill:none" points="1889.85,1423.18 1889.85,1404.28 "/>
<polyline clip-path="url(#clip070)" style="stroke:#000000; stroke-linecap:round; stroke-linejoin:round; stroke-width:4; stroke-opacity:1; fill:none" points="2292.38,1423.18 2292.38,1404.28 "/>
<path clip-path="url(#clip070)" d="M279.759 1454.1 Q276.148 1454.1 274.319 1457.66 Q272.513 1461.2 272.513 1468.33 Q272.513 1475.44 274.319 1479.01 Q276.148 1482.55 279.759 1482.55 Q283.393 1482.55 285.199 1479.01 Q287.027 1475.44 287.027 1468.33 Q287.027 1461.2 285.199 1457.66 Q283.393 1454.1 279.759 1454.1 M279.759 1450.39 Q285.569 1450.39 288.624 1455 Q291.703 1459.58 291.703 1468.33 Q291.703 1477.06 288.624 1481.67 Q285.569 1486.25 279.759 1486.25 Q273.949 1486.25 270.87 1481.67 Q267.814 1477.06 267.814 1468.33 Q267.814 1459.58 270.87 1455 Q273.949 1450.39 279.759 1450.39 Z" fill="#000000" fill-rule="nonzero" fill-opacity="1" /><path clip-path="url(#clip070)" d="M672.664 1481.64 L680.303 1481.64 L680.303 1455.28 L671.993 1456.95 L671.993 1452.69 L680.257 1451.02 L684.933 1451.02 L684.933 1481.64 L692.572 1481.64 L692.572 1485.58 L672.664 1485.58 L672.664 1481.64 Z" fill="#000000" fill-rule="nonzero" fill-opacity="1" /><path clip-path="url(#clip070)" d="M1079.46 1481.64 L1095.78 1481.64 L1095.78 1485.58 L1073.83 1485.58 L1073.83 1481.64 Q1076.5 1478.89 1081.08 1474.26 Q1085.69 1469.61 1086.87 1468.27 Q1089.11 1465.74 1089.99 1464.01 Q1090.89 1462.25 1090.89 1460.56 Q1090.89 1457.8 1088.95 1456.07 Q1087.03 1454.33 1083.93 1454.33 Q1081.73 1454.33 1079.27 1455.09 Q1076.84 1455.86 1074.07 1457.41 L1074.07 1452.69 Q1076.89 1451.55 1079.34 1450.97 Q1081.8 1450.39 1083.83 1450.39 Q1089.2 1450.39 1092.4 1453.08 Q1095.59 1455.77 1095.59 1460.26 Q1095.59 1462.39 1094.78 1464.31 Q1094 1466.2 1091.89 1468.8 Q1091.31 1469.47 1088.21 1472.69 Q1085.11 1475.88 1079.46 1481.64 Z" fill="#000000" fill-rule="nonzero" fill-opacity="1" /><path clip-path="url(#clip070)" d="M1491.58 1466.95 Q1494.93 1467.66 1496.81 1469.93 Q1498.71 1472.2 1498.71 1475.53 Q1498.71 1480.65 1495.19 1483.45 Q1491.67 1486.25 1485.19 1486.25 Q1483.01 1486.25 1480.7 1485.81 Q1478.41 1485.39 1475.95 1484.54 L1475.95 1480.02 Q1477.9 1481.16 1480.21 1481.74 Q1482.53 1482.32 1485.05 1482.32 Q1489.45 1482.32 1491.74 1480.58 Q1494.05 1478.84 1494.05 1475.53 Q1494.05 1472.48 1491.9 1470.77 Q1489.77 1469.03 1485.95 1469.03 L1481.92 1469.03 L1481.92 1465.19 L1486.14 1465.19 Q1489.59 1465.19 1491.42 1463.82 Q1493.24 1462.43 1493.24 1459.84 Q1493.24 1457.18 1491.35 1455.77 Q1489.47 1454.33 1485.95 1454.33 Q1484.03 1454.33 1481.83 1454.75 Q1479.63 1455.16 1476.99 1456.04 L1476.99 1451.88 Q1479.66 1451.14 1481.97 1450.77 Q1484.31 1450.39 1486.37 1450.39 Q1491.69 1450.39 1494.8 1452.83 Q1497.9 1455.23 1497.9 1459.35 Q1497.9 1462.22 1496.25 1464.21 Q1494.61 1466.18 1491.58 1466.95 Z" fill="#000000" fill-rule="nonzero" fill-opacity="1" /><path clip-path="url(#clip070)" d="M1892.86 1455.09 L1881.06 1473.54 L1892.86 1473.54 L1892.86 1455.09 M1891.64 1451.02 L1897.52 1451.02 L1897.52 1473.54 L1902.45 1473.54 L1902.45 1477.43 L1897.52 1477.43 L1897.52 1485.58 L1892.86 1485.58 L1892.86 1477.43 L1877.26 1477.43 L1877.26 1472.92 L1891.64 1451.02 Z" fill="#000000" fill-rule="nonzero" fill-opacity="1" /><path clip-path="url(#clip070)" d="M2282.66 1451.02 L2301.01 1451.02 L2301.01 1454.96 L2286.94 1454.96 L2286.94 1463.43 Q2287.96 1463.08 2288.97 1462.92 Q2289.99 1462.73 2291.01 1462.73 Q2296.8 1462.73 2300.18 1465.9 Q2303.56 1469.08 2303.56 1474.49 Q2303.56 1480.07 2300.09 1483.17 Q2296.61 1486.25 2290.29 1486.25 Q2288.12 1486.25 2285.85 1485.88 Q2283.6 1485.51 2281.2 1484.77 L2281.2 1480.07 Q2283.28 1481.2 2285.5 1481.76 Q2287.72 1482.32 2290.2 1482.32 Q2294.21 1482.32 2296.54 1480.21 Q2298.88 1478.1 2298.88 1474.49 Q2298.88 1470.88 2296.54 1468.77 Q2294.21 1466.67 2290.2 1466.67 Q2288.33 1466.67 2286.45 1467.08 Q2284.6 1467.5 2282.66 1468.38 L2282.66 1451.02 Z" fill="#000000" fill-rule="nonzero" fill-opacity="1" /><path clip-path="url(#clip070)" d="M1285.13 1522.27 L1285.13 1532.4 L1297.19 1532.4 L1297.19 1536.95 L1285.13 1536.95 L1285.13 1556.3 Q1285.13 1560.66 1286.31 1561.9 Q1287.52 1563.14 1291.18 1563.14 L1297.19 1563.14 L1297.19 1568.04 L1291.18 1568.04 Q1284.4 1568.04 1281.82 1565.53 Q1279.24 1562.98 1279.24 1556.3 L1279.24 1536.95 L1274.94 1536.95 L1274.94 1532.4 L1279.24 1532.4 L1279.24 1522.27 L1285.13 1522.27 Z" fill="#000000" fill-rule="nonzero" fill-opacity="1" /><polyline clip-path="url(#clip070)" style="stroke:#000000; stroke-linecap:round; stroke-linejoin:round; stroke-width:4; stroke-opacity:1; fill:none" points="219.38,1423.18 219.38,47.2441 "/>
<polyline clip-path="url(#clip070)" style="stroke:#000000; stroke-linecap:round; stroke-linejoin:round; stroke-width:4; stroke-opacity:1; fill:none" points="219.38,1388.61 238.278,1388.61 "/>
<polyline clip-path="url(#clip070)" style="stroke:#000000; stroke-linecap:round; stroke-linejoin:round; stroke-width:4; stroke-opacity:1; fill:none" points="219.38,1063.01 238.278,1063.01 "/>
<polyline clip-path="url(#clip070)" style="stroke:#000000; stroke-linecap:round; stroke-linejoin:round; stroke-width:4; stroke-opacity:1; fill:none" points="219.38,737.4 238.278,737.4 "/>
<polyline clip-path="url(#clip070)" style="stroke:#000000; stroke-linecap:round; stroke-linejoin:round; stroke-width:4; stroke-opacity:1; fill:none" points="219.38,411.793 238.278,411.793 "/>
<polyline clip-path="url(#clip070)" style="stroke:#000000; stroke-linecap:round; stroke-linejoin:round; stroke-width:4; stroke-opacity:1; fill:none" points="219.38,86.1857 238.278,86.1857 "/>
<path clip-path="url(#clip070)" d="M126.205 1374.41 Q122.593 1374.41 120.765 1377.98 Q118.959 1381.52 118.959 1388.65 Q118.959 1395.76 120.765 1399.32 Q122.593 1402.86 126.205 1402.86 Q129.839 1402.86 131.644 1399.32 Q133.473 1395.76 133.473 1388.65 Q133.473 1381.52 131.644 1377.98 Q129.839 1374.41 126.205 1374.41 M126.205 1370.71 Q132.015 1370.71 135.07 1375.32 Q138.149 1379.9 138.149 1388.65 Q138.149 1397.38 135.07 1401.98 Q132.015 1406.57 126.205 1406.57 Q120.394 1406.57 117.316 1401.98 Q114.26 1397.38 114.26 1388.65 Q114.26 1379.9 117.316 1375.32 Q120.394 1370.71 126.205 1370.71 Z" fill="#000000" fill-rule="nonzero" fill-opacity="1" /><path clip-path="url(#clip070)" d="M146.366 1400.02 L151.251 1400.02 L151.251 1405.89 L146.366 1405.89 L146.366 1400.02 Z" fill="#000000" fill-rule="nonzero" fill-opacity="1" /><path clip-path="url(#clip070)" d="M171.436 1374.41 Q167.825 1374.41 165.996 1377.98 Q164.19 1381.52 164.19 1388.65 Q164.19 1395.76 165.996 1399.32 Q167.825 1402.86 171.436 1402.86 Q175.07 1402.86 176.876 1399.32 Q178.704 1395.76 178.704 1388.65 Q178.704 1381.52 176.876 1377.98 Q175.07 1374.41 171.436 1374.41 M171.436 1370.71 Q177.246 1370.71 180.301 1375.32 Q183.38 1379.9 183.38 1388.65 Q183.38 1397.38 180.301 1401.98 Q177.246 1406.57 171.436 1406.57 Q165.626 1406.57 162.547 1401.98 Q159.491 1397.38 159.491 1388.65 Q159.491 1379.9 162.547 1375.32 Q165.626 1370.71 171.436 1370.71 Z" fill="#000000" fill-rule="nonzero" fill-opacity="1" /><path clip-path="url(#clip070)" d="M127.2 1048.81 Q123.589 1048.81 121.76 1052.37 Q119.955 1055.91 119.955 1063.04 Q119.955 1070.15 121.76 1073.71 Q123.589 1077.26 127.2 1077.26 Q130.834 1077.26 132.64 1073.71 Q134.468 1070.15 134.468 1063.04 Q134.468 1055.91 132.64 1052.37 Q130.834 1048.81 127.2 1048.81 M127.2 1045.1 Q133.01 1045.1 136.066 1049.71 Q139.144 1054.29 139.144 1063.04 Q139.144 1071.77 136.066 1076.38 Q133.01 1080.96 127.2 1080.96 Q121.39 1080.96 118.311 1076.38 Q115.256 1071.77 115.256 1063.04 Q115.256 1054.29 118.311 1049.71 Q121.39 1045.1 127.2 1045.1 Z" fill="#000000" fill-rule="nonzero" fill-opacity="1" /><path clip-path="url(#clip070)" d="M147.362 1074.41 L152.246 1074.41 L152.246 1080.29 L147.362 1080.29 L147.362 1074.41 Z" fill="#000000" fill-rule="nonzero" fill-opacity="1" /><path clip-path="url(#clip070)" d="M162.477 1045.73 L180.834 1045.73 L180.834 1049.66 L166.76 1049.66 L166.76 1058.13 Q167.778 1057.79 168.797 1057.63 Q169.815 1057.44 170.834 1057.44 Q176.621 1057.44 180.001 1060.61 Q183.38 1063.78 183.38 1069.2 Q183.38 1074.78 179.908 1077.88 Q176.436 1080.96 170.116 1080.96 Q167.94 1080.96 165.672 1080.59 Q163.427 1080.22 161.019 1079.48 L161.019 1074.78 Q163.102 1075.91 165.325 1076.47 Q167.547 1077.02 170.024 1077.02 Q174.028 1077.02 176.366 1074.92 Q178.704 1072.81 178.704 1069.2 Q178.704 1065.59 176.366 1063.48 Q174.028 1061.38 170.024 1061.38 Q168.149 1061.38 166.274 1061.79 Q164.422 1062.21 162.477 1063.09 L162.477 1045.73 Z" fill="#000000" fill-rule="nonzero" fill-opacity="1" /><path clip-path="url(#clip070)" d="M117.015 750.745 L124.654 750.745 L124.654 724.379 L116.343 726.046 L116.343 721.787 L124.607 720.12 L129.283 720.12 L129.283 750.745 L136.922 750.745 L136.922 754.68 L117.015 754.68 L117.015 750.745 Z" fill="#000000" fill-rule="nonzero" fill-opacity="1" /><path clip-path="url(#clip070)" d="M146.366 748.801 L151.251 748.801 L151.251 754.68 L146.366 754.68 L146.366 748.801 Z" fill="#000000" fill-rule="nonzero" fill-opacity="1" /><path clip-path="url(#clip070)" d="M171.436 723.199 Q167.825 723.199 165.996 726.764 Q164.19 730.305 164.19 737.435 Q164.19 744.541 165.996 748.106 Q167.825 751.648 171.436 751.648 Q175.07 751.648 176.876 748.106 Q178.704 744.541 178.704 737.435 Q178.704 730.305 176.876 726.764 Q175.07 723.199 171.436 723.199 M171.436 719.495 Q177.246 719.495 180.301 724.102 Q183.38 728.685 183.38 737.435 Q183.38 746.162 180.301 750.768 Q177.246 755.352 171.436 755.352 Q165.626 755.352 162.547 750.768 Q159.491 746.162 159.491 737.435 Q159.491 728.685 162.547 724.102 Q165.626 719.495 171.436 719.495 Z" fill="#000000" fill-rule="nonzero" fill-opacity="1" /><path clip-path="url(#clip070)" d="M118.01 425.138 L125.649 425.138 L125.649 398.772 L117.339 400.439 L117.339 396.18 L125.603 394.513 L130.279 394.513 L130.279 425.138 L137.917 425.138 L137.917 429.073 L118.01 429.073 L118.01 425.138 Z" fill="#000000" fill-rule="nonzero" fill-opacity="1" /><path clip-path="url(#clip070)" d="M147.362 423.193 L152.246 423.193 L152.246 429.073 L147.362 429.073 L147.362 423.193 Z" fill="#000000" fill-rule="nonzero" fill-opacity="1" /><path clip-path="url(#clip070)" d="M162.477 394.513 L180.834 394.513 L180.834 398.448 L166.76 398.448 L166.76 406.92 Q167.778 406.573 168.797 406.411 Q169.815 406.226 170.834 406.226 Q176.621 406.226 180.001 409.397 Q183.38 412.568 183.38 417.985 Q183.38 423.564 179.908 426.666 Q176.436 429.744 170.116 429.744 Q167.94 429.744 165.672 429.374 Q163.427 429.004 161.019 428.263 L161.019 423.564 Q163.102 424.698 165.325 425.254 Q167.547 425.809 170.024 425.809 Q174.028 425.809 176.366 423.703 Q178.704 421.596 178.704 417.985 Q178.704 414.374 176.366 412.267 Q174.028 410.161 170.024 410.161 Q168.149 410.161 166.274 410.578 Q164.422 410.994 162.477 411.874 L162.477 394.513 Z" fill="#000000" fill-rule="nonzero" fill-opacity="1" /><path clip-path="url(#clip070)" d="M120.232 99.5305 L136.552 99.5305 L136.552 103.466 L114.607 103.466 L114.607 99.5305 Q117.269 96.7759 121.853 92.1463 Q126.459 87.4935 127.64 86.151 Q129.885 83.6278 130.765 81.8917 Q131.667 80.1325 131.667 78.4427 Q131.667 75.688 129.723 73.9519 Q127.802 72.2158 124.7 72.2158 Q122.501 72.2158 120.047 72.9797 Q117.617 73.7436 114.839 75.2945 L114.839 70.5723 Q117.663 69.4381 120.117 68.8594 Q122.57 68.2807 124.607 68.2807 Q129.978 68.2807 133.172 70.9658 Q136.367 73.651 136.367 78.1417 Q136.367 80.2714 135.556 82.1926 Q134.769 84.0908 132.663 86.6834 Q132.084 87.3546 128.982 90.5722 Q125.88 93.7667 120.232 99.5305 Z" fill="#000000" fill-rule="nonzero" fill-opacity="1" /><path clip-path="url(#clip070)" d="M146.366 97.5861 L151.251 97.5861 L151.251 103.466 L146.366 103.466 L146.366 97.5861 Z" fill="#000000" fill-rule="nonzero" fill-opacity="1" /><path clip-path="url(#clip070)" d="M171.436 71.9844 Q167.825 71.9844 165.996 75.5492 Q164.19 79.0908 164.19 86.2204 Q164.19 93.3268 165.996 96.8916 Q167.825 100.433 171.436 100.433 Q175.07 100.433 176.876 96.8916 Q178.704 93.3268 178.704 86.2204 Q178.704 79.0908 176.876 75.5492 Q175.07 71.9844 171.436 71.9844 M171.436 68.2807 Q177.246 68.2807 180.301 72.8871 Q183.38 77.4704 183.38 86.2204 Q183.38 94.9472 180.301 99.5537 Q177.246 104.137 171.436 104.137 Q165.626 104.137 162.547 99.5537 Q159.491 94.9472 159.491 86.2204 Q159.491 77.4704 162.547 72.8871 Q165.626 68.2807 171.436 68.2807 Z" fill="#000000" fill-rule="nonzero" fill-opacity="1" /><path clip-path="url(#clip070)" d="M28.3562 755.073 L45.7028 767.964 L64.0042 754.405 L64.0042 761.311 L49.9996 771.687 L64.0042 782.064 L64.0042 788.97 L45.3526 775.125 L28.3562 787.793 L28.3562 780.886 L41.0558 771.433 L28.3562 761.98 L28.3562 755.073 Z" fill="#000000" fill-rule="nonzero" fill-opacity="1" /><path clip-path="url(#clip070)" d="M14.5426 732.061 Q21.8632 736.326 29.0246 738.395 Q36.186 740.464 43.5384 740.464 Q50.8908 740.464 58.1159 738.395 Q65.3091 736.294 72.5979 732.061 L72.5979 737.154 Q65.1182 741.928 57.8931 744.315 Q50.668 746.67 43.5384 746.67 Q36.4406 746.67 29.2474 744.315 Q22.0542 741.96 14.5426 737.154 L14.5426 732.061 Z" fill="#000000" fill-rule="nonzero" fill-opacity="1" /><path clip-path="url(#clip070)" d="M18.2347 714.905 L28.3562 714.905 L28.3562 702.842 L32.9077 702.842 L32.9077 714.905 L52.2594 714.905 Q56.6199 714.905 57.8613 713.728 Q59.1026 712.518 59.1026 708.858 L59.1026 702.842 L64.0042 702.842 L64.0042 708.858 Q64.0042 715.637 61.4897 718.216 Q58.9434 720.794 52.2594 720.794 L32.9077 720.794 L32.9077 725.09 L28.3562 725.09 L28.3562 720.794 L18.2347 720.794 L18.2347 714.905 Z" fill="#000000" fill-rule="nonzero" fill-opacity="1" /><path clip-path="url(#clip070)" d="M14.5426 696.063 L14.5426 690.97 Q22.0542 686.196 29.2474 683.841 Q36.4406 681.454 43.5384 681.454 Q50.668 681.454 57.8931 683.841 Q65.1182 686.196 72.5979 690.97 L72.5979 696.063 Q65.3091 691.83 58.1159 689.761 Q50.8908 687.66 43.5384 687.66 Q36.186 687.66 29.0246 689.761 Q21.8632 691.83 14.5426 696.063 Z" fill="#000000" fill-rule="nonzero" fill-opacity="1" /><path clip-path="url(#clip072)" d="M299.885 86.1857 L279.759 86.1857 L279.759 770.762 L299.885 770.762 L299.885 86.1857 L299.885 86.1857  Z" fill="#009af9" fill-rule="evenodd" fill-opacity="0.5"/>
<polyline clip-path="url(#clip072)" style="stroke:#000000; stroke-linecap:round; stroke-linejoin:round; stroke-width:0; stroke-opacity:0.5; fill:none" points="299.885,86.1857 279.759,86.1857 279.759,770.762 299.885,770.762 299.885,86.1857 "/>
<path clip-path="url(#clip072)" d="M320.011 149.706 L299.885 149.706 L299.885 800.895 L320.011 800.895 L320.011 149.706 L320.011 149.706  Z" fill="#009af9" fill-rule="evenodd" fill-opacity="0.5"/>
<polyline clip-path="url(#clip072)" style="stroke:#000000; stroke-linecap:round; stroke-linejoin:round; stroke-width:0; stroke-opacity:0.5; fill:none" points="320.011,149.706 299.885,149.706 299.885,800.895 320.011,800.895 320.011,149.706 "/>
<path clip-path="url(#clip072)" d="M340.137 210.128 L320.011 210.128 L320.011 829.558 L340.137 829.558 L340.137 210.128 L340.137 210.128  Z" fill="#009af9" fill-rule="evenodd" fill-opacity="0.5"/>
<polyline clip-path="url(#clip072)" style="stroke:#000000; stroke-linecap:round; stroke-linejoin:round; stroke-width:0; stroke-opacity:0.5; fill:none" points="340.137,210.128 320.011,210.128 320.011,829.558 340.137,829.558 340.137,210.128 "/>
<path clip-path="url(#clip072)" d="M360.263 267.604 L340.137 267.604 L340.137 856.824 L360.263 856.824 L360.263 267.604 L360.263 267.604  Z" fill="#009af9" fill-rule="evenodd" fill-opacity="0.5"/>
<polyline clip-path="url(#clip072)" style="stroke:#000000; stroke-linecap:round; stroke-linejoin:round; stroke-width:0; stroke-opacity:0.5; fill:none" points="360.263,267.604 340.137,267.604 340.137,856.824 360.263,856.824 360.263,267.604 "/>
<path clip-path="url(#clip072)" d="M380.39 322.276 L360.263 322.276 L360.263 882.759 L380.39 882.759 L380.39 322.276 L380.39 322.276  Z" fill="#009af9" fill-rule="evenodd" fill-opacity="0.5"/>
<polyline clip-path="url(#clip072)" style="stroke:#000000; stroke-linecap:round; stroke-linejoin:round; stroke-width:0; stroke-opacity:0.5; fill:none" points="380.39,322.276 360.263,322.276 360.263,882.759 380.39,882.759 380.39,322.276 "/>
<path clip-path="url(#clip072)" d="M400.516 374.282 L380.39 374.282 L380.39 907.43 L400.516 907.43 L400.516 374.282 L400.516 374.282  Z" fill="#009af9" fill-rule="evenodd" fill-opacity="0.5"/>
<polyline clip-path="url(#clip072)" style="stroke:#000000; stroke-linecap:round; stroke-linejoin:round; stroke-width:0; stroke-opacity:0.5; fill:none" points="400.516,374.282 380.39,374.282 380.39,907.43 400.516,907.43 400.516,374.282 "/>
<path clip-path="url(#clip072)" d="M420.642 423.752 L400.516 423.752 L400.516 930.898 L420.642 930.898 L420.642 423.752 L420.642 423.752  Z" fill="#009af9" fill-rule="evenodd" fill-opacity="0.5"/>
<polyline clip-path="url(#clip072)" style="stroke:#000000; stroke-linecap:round; stroke-linejoin:round; stroke-width:0; stroke-opacity:0.5; fill:none" points="420.642,423.752 400.516,423.752 400.516,930.898 420.642,930.898 420.642,423.752 "/>
<path clip-path="url(#clip072)" d="M440.768 470.808 L420.642 470.808 L420.642 953.221 L440.768 953.221 L440.768 470.808 L440.768 470.808  Z" fill="#009af9" fill-rule="evenodd" fill-opacity="0.5"/>
<polyline clip-path="url(#clip072)" style="stroke:#000000; stroke-linecap:round; stroke-linejoin:round; stroke-width:0; stroke-opacity:0.5; fill:none" points="440.768,470.808 420.642,470.808 420.642,953.221 440.768,953.221 440.768,470.808 "/>
<path clip-path="url(#clip072)" d="M460.894 515.57 L440.768 515.57 L440.768 974.455 L460.894 974.455 L460.894 515.57 L460.894 515.57  Z" fill="#009af9" fill-rule="evenodd" fill-opacity="0.5"/>
<polyline clip-path="url(#clip072)" style="stroke:#000000; stroke-linecap:round; stroke-linejoin:round; stroke-width:0; stroke-opacity:0.5; fill:none" points="460.894,515.57 440.768,515.57 440.768,974.455 460.894,974.455 460.894,515.57 "/>
<path clip-path="url(#clip072)" d="M481.021 558.149 L460.894 558.149 L460.894 994.654 L481.021 994.654 L481.021 558.149 L481.021 558.149  Z" fill="#009af9" fill-rule="evenodd" fill-opacity="0.5"/>
<polyline clip-path="url(#clip072)" style="stroke:#000000; stroke-linecap:round; stroke-linejoin:round; stroke-width:0; stroke-opacity:0.5; fill:none" points="481.021,558.149 460.894,558.149 460.894,994.654 481.021,994.654 481.021,558.149 "/>
<path clip-path="url(#clip072)" d="M501.147 598.652 L481.021 598.652 L481.021 1013.87 L501.147 1013.87 L501.147 598.652 L501.147 598.652  Z" fill="#009af9" fill-rule="evenodd" fill-opacity="0.5"/>
<polyline clip-path="url(#clip072)" style="stroke:#000000; stroke-linecap:round; stroke-linejoin:round; stroke-width:0; stroke-opacity:0.5; fill:none" points="501.147,598.652 481.021,598.652 481.021,1013.87 501.147,1013.87 501.147,598.652 "/>
<path clip-path="url(#clip072)" d="M521.273 637.179 L501.147 637.179 L501.147 1032.14 L521.273 1032.14 L521.273 637.179 L521.273 637.179  Z" fill="#009af9" fill-rule="evenodd" fill-opacity="0.5"/>
<polyline clip-path="url(#clip072)" style="stroke:#000000; stroke-linecap:round; stroke-linejoin:round; stroke-width:0; stroke-opacity:0.5; fill:none" points="521.273,637.179 501.147,637.179 501.147,1032.14 521.273,1032.14 521.273,637.179 "/>
<path clip-path="url(#clip072)" d="M541.399 673.827 L521.273 673.827 L521.273 1049.53 L541.399 1049.53 L541.399 673.827 L541.399 673.827  Z" fill="#009af9" fill-rule="evenodd" fill-opacity="0.5"/>
<polyline clip-path="url(#clip072)" style="stroke:#000000; stroke-linecap:round; stroke-linejoin:round; stroke-width:0; stroke-opacity:0.5; fill:none" points="541.399,673.827 521.273,673.827 521.273,1049.53 541.399,1049.53 541.399,673.827 "/>
<path clip-path="url(#clip072)" d="M561.525 708.687 L541.399 708.687 L541.399 1066.07 L561.525 1066.07 L561.525 708.687 L561.525 708.687  Z" fill="#009af9" fill-rule="evenodd" fill-opacity="0.5"/>
<polyline clip-path="url(#clip072)" style="stroke:#000000; stroke-linecap:round; stroke-linejoin:round; stroke-width:0; stroke-opacity:0.5; fill:none" points="561.525,708.687 541.399,708.687 541.399,1066.07 561.525,1066.07 561.525,708.687 "/>
<path clip-path="url(#clip072)" d="M581.652 741.848 L561.525 741.848 L561.525 1081.8 L581.652 1081.8 L581.652 741.848 L581.652 741.848  Z" fill="#009af9" fill-rule="evenodd" fill-opacity="0.5"/>
<polyline clip-path="url(#clip072)" style="stroke:#000000; stroke-linecap:round; stroke-linejoin:round; stroke-width:0; stroke-opacity:0.5; fill:none" points="581.652,741.848 561.525,741.848 561.525,1081.8 581.652,1081.8 581.652,741.848 "/>
<path clip-path="url(#clip072)" d="M601.778 773.391 L581.652 773.391 L581.652 1096.76 L601.778 1096.76 L601.778 773.391 L601.778 773.391  Z" fill="#009af9" fill-rule="evenodd" fill-opacity="0.5"/>
<polyline clip-path="url(#clip072)" style="stroke:#000000; stroke-linecap:round; stroke-linejoin:round; stroke-width:0; stroke-opacity:0.5; fill:none" points="601.778,773.391 581.652,773.391 581.652,1096.76 601.778,1096.76 601.778,773.391 "/>
<path clip-path="url(#clip072)" d="M621.904 803.396 L601.778 803.396 L601.778 1111 L621.904 1111 L621.904 803.396 L621.904 803.396  Z" fill="#009af9" fill-rule="evenodd" fill-opacity="0.5"/>
<polyline clip-path="url(#clip072)" style="stroke:#000000; stroke-linecap:round; stroke-linejoin:round; stroke-width:0; stroke-opacity:0.5; fill:none" points="621.904,803.396 601.778,803.396 601.778,1111 621.904,1111 621.904,803.396 "/>
<path clip-path="url(#clip072)" d="M642.03 831.937 L621.904 831.937 L621.904 1124.54 L642.03 1124.54 L642.03 831.937 L642.03 831.937  Z" fill="#009af9" fill-rule="evenodd" fill-opacity="0.5"/>
<polyline clip-path="url(#clip072)" style="stroke:#000000; stroke-linecap:round; stroke-linejoin:round; stroke-width:0; stroke-opacity:0.5; fill:none" points="642.03,831.937 621.904,831.937 621.904,1124.54 642.03,1124.54 642.03,831.937 "/>
<path clip-path="url(#clip072)" d="M662.156 859.087 L642.03 859.087 L642.03 1137.41 L662.156 1137.41 L662.156 859.087 L662.156 859.087  Z" fill="#009af9" fill-rule="evenodd" fill-opacity="0.5"/>
<polyline clip-path="url(#clip072)" style="stroke:#000000; stroke-linecap:round; stroke-linejoin:round; stroke-width:0; stroke-opacity:0.5; fill:none" points="662.156,859.087 642.03,859.087 642.03,1137.41 662.156,1137.41 662.156,859.087 "/>
<path clip-path="url(#clip072)" d="M682.282 884.912 L662.156 884.912 L662.156 1149.67 L682.282 1149.67 L682.282 884.912 L682.282 884.912  Z" fill="#009af9" fill-rule="evenodd" fill-opacity="0.5"/>
<polyline clip-path="url(#clip072)" style="stroke:#000000; stroke-linecap:round; stroke-linejoin:round; stroke-width:0; stroke-opacity:0.5; fill:none" points="682.282,884.912 662.156,884.912 662.156,1149.67 682.282,1149.67 682.282,884.912 "/>
<path clip-path="url(#clip072)" d="M702.409 909.478 L682.282 909.478 L682.282 1161.32 L702.409 1161.32 L702.409 909.478 L702.409 909.478  Z" fill="#009af9" fill-rule="evenodd" fill-opacity="0.5"/>
<polyline clip-path="url(#clip072)" style="stroke:#000000; stroke-linecap:round; stroke-linejoin:round; stroke-width:0; stroke-opacity:0.5; fill:none" points="702.409,909.478 682.282,909.478 682.282,1161.32 702.409,1161.32 702.409,909.478 "/>
<path clip-path="url(#clip072)" d="M722.535 932.846 L702.409 932.846 L702.409 1172.4 L722.535 1172.4 L722.535 932.846 L722.535 932.846  Z" fill="#009af9" fill-rule="evenodd" fill-opacity="0.5"/>
<polyline clip-path="url(#clip072)" style="stroke:#000000; stroke-linecap:round; stroke-linejoin:round; stroke-width:0; stroke-opacity:0.5; fill:none" points="722.535,932.846 702.409,932.846 702.409,1172.4 722.535,1172.4 722.535,932.846 "/>
<path clip-path="url(#clip072)" d="M742.661 955.074 L722.535 955.074 L722.535 1182.95 L742.661 1182.95 L742.661 955.074 L742.661 955.074  Z" fill="#009af9" fill-rule="evenodd" fill-opacity="0.5"/>
<polyline clip-path="url(#clip072)" style="stroke:#000000; stroke-linecap:round; stroke-linejoin:round; stroke-width:0; stroke-opacity:0.5; fill:none" points="742.661,955.074 722.535,955.074 722.535,1182.95 742.661,1182.95 742.661,955.074 "/>
<path clip-path="url(#clip072)" d="M762.787 976.218 L742.661 976.218 L742.661 1192.98 L762.787 1192.98 L762.787 976.218 L762.787 976.218  Z" fill="#009af9" fill-rule="evenodd" fill-opacity="0.5"/>
<polyline clip-path="url(#clip072)" style="stroke:#000000; stroke-linecap:round; stroke-linejoin:round; stroke-width:0; stroke-opacity:0.5; fill:none" points="762.787,976.218 742.661,976.218 742.661,1192.98 762.787,1192.98 762.787,976.218 "/>
<path clip-path="url(#clip072)" d="M782.913 996.331 L762.787 996.331 L762.787 1202.52 L782.913 1202.52 L782.913 996.331 L782.913 996.331  Z" fill="#009af9" fill-rule="evenodd" fill-opacity="0.5"/>
<polyline clip-path="url(#clip072)" style="stroke:#000000; stroke-linecap:round; stroke-linejoin:round; stroke-width:0; stroke-opacity:0.5; fill:none" points="782.913,996.331 762.787,996.331 762.787,1202.52 782.913,1202.52 782.913,996.331 "/>
<path clip-path="url(#clip072)" d="M803.04 1015.46 L782.913 1015.46 L782.913 1211.6 L803.04 1211.6 L803.04 1015.46 L803.04 1015.46  Z" fill="#009af9" fill-rule="evenodd" fill-opacity="0.5"/>
<polyline clip-path="url(#clip072)" style="stroke:#000000; stroke-linecap:round; stroke-linejoin:round; stroke-width:0; stroke-opacity:0.5; fill:none" points="803.04,1015.46 782.913,1015.46 782.913,1211.6 803.04,1211.6 803.04,1015.46 "/>
<path clip-path="url(#clip072)" d="M823.166 1033.66 L803.04 1033.66 L803.04 1220.23 L823.166 1220.23 L823.166 1033.66 L823.166 1033.66  Z" fill="#009af9" fill-rule="evenodd" fill-opacity="0.5"/>
<polyline clip-path="url(#clip072)" style="stroke:#000000; stroke-linecap:round; stroke-linejoin:round; stroke-width:0; stroke-opacity:0.5; fill:none" points="823.166,1033.66 803.04,1033.66 803.04,1220.23 823.166,1220.23 823.166,1033.66 "/>
<path clip-path="url(#clip072)" d="M843.292 1050.97 L823.166 1050.97 L823.166 1228.44 L843.292 1228.44 L843.292 1050.97 L843.292 1050.97  Z" fill="#009af9" fill-rule="evenodd" fill-opacity="0.5"/>
<polyline clip-path="url(#clip072)" style="stroke:#000000; stroke-linecap:round; stroke-linejoin:round; stroke-width:0; stroke-opacity:0.5; fill:none" points="843.292,1050.97 823.166,1050.97 823.166,1228.44 843.292,1228.44 843.292,1050.97 "/>
<path clip-path="url(#clip072)" d="M863.418 1067.44 L843.292 1067.44 L843.292 1236.25 L863.418 1236.25 L863.418 1067.44 L863.418 1067.44  Z" fill="#009af9" fill-rule="evenodd" fill-opacity="0.5"/>
<polyline clip-path="url(#clip072)" style="stroke:#000000; stroke-linecap:round; stroke-linejoin:round; stroke-width:0; stroke-opacity:0.5; fill:none" points="863.418,1067.44 843.292,1067.44 843.292,1236.25 863.418,1236.25 863.418,1067.44 "/>
<path clip-path="url(#clip072)" d="M883.544 1083.1 L863.418 1083.1 L863.418 1243.68 L883.544 1243.68 L883.544 1083.1 L883.544 1083.1  Z" fill="#009af9" fill-rule="evenodd" fill-opacity="0.5"/>
<polyline clip-path="url(#clip072)" style="stroke:#000000; stroke-linecap:round; stroke-linejoin:round; stroke-width:0; stroke-opacity:0.5; fill:none" points="883.544,1083.1 863.418,1083.1 863.418,1243.68 883.544,1243.68 883.544,1083.1 "/>
<path clip-path="url(#clip072)" d="M903.67 1098 L883.544 1098 L883.544 1250.75 L903.67 1250.75 L903.67 1098 L903.67 1098  Z" fill="#009af9" fill-rule="evenodd" fill-opacity="0.5"/>
<polyline clip-path="url(#clip072)" style="stroke:#000000; stroke-linecap:round; stroke-linejoin:round; stroke-width:0; stroke-opacity:0.5; fill:none" points="903.67,1098 883.544,1098 883.544,1250.75 903.67,1250.75 903.67,1098 "/>
<path clip-path="url(#clip072)" d="M923.797 1112.18 L903.67 1112.18 L903.67 1257.48 L923.797 1257.48 L923.797 1112.18 L923.797 1112.18  Z" fill="#009af9" fill-rule="evenodd" fill-opacity="0.5"/>
<polyline clip-path="url(#clip072)" style="stroke:#000000; stroke-linecap:round; stroke-linejoin:round; stroke-width:0; stroke-opacity:0.5; fill:none" points="923.797,1112.18 903.67,1112.18 903.67,1257.48 923.797,1257.48 923.797,1112.18 "/>
<path clip-path="url(#clip072)" d="M943.923 1125.66 L923.797 1125.66 L923.797 1263.87 L943.923 1263.87 L943.923 1125.66 L943.923 1125.66  Z" fill="#009af9" fill-rule="evenodd" fill-opacity="0.5"/>
<polyline clip-path="url(#clip072)" style="stroke:#000000; stroke-linecap:round; stroke-linejoin:round; stroke-width:0; stroke-opacity:0.5; fill:none" points="943.923,1125.66 923.797,1125.66 923.797,1263.87 943.923,1263.87 943.923,1125.66 "/>
<path clip-path="url(#clip072)" d="M964.049 1138.48 L943.923 1138.48 L943.923 1269.96 L964.049 1269.96 L964.049 1138.48 L964.049 1138.48  Z" fill="#009af9" fill-rule="evenodd" fill-opacity="0.5"/>
<polyline clip-path="url(#clip072)" style="stroke:#000000; stroke-linecap:round; stroke-linejoin:round; stroke-width:0; stroke-opacity:0.5; fill:none" points="964.049,1138.48 943.923,1138.48 943.923,1269.96 964.049,1269.96 964.049,1138.48 "/>
<path clip-path="url(#clip072)" d="M984.175 1150.68 L964.049 1150.68 L964.049 1275.74 L984.175 1275.74 L984.175 1150.68 L984.175 1150.68  Z" fill="#009af9" fill-rule="evenodd" fill-opacity="0.5"/>
<polyline clip-path="url(#clip072)" style="stroke:#000000; stroke-linecap:round; stroke-linejoin:round; stroke-width:0; stroke-opacity:0.5; fill:none" points="984.175,1150.68 964.049,1150.68 964.049,1275.74 984.175,1275.74 984.175,1150.68 "/>
<path clip-path="url(#clip072)" d="M1004.3 1162.29 L984.175 1162.29 L984.175 1281.25 L1004.3 1281.25 L1004.3 1162.29 L1004.3 1162.29  Z" fill="#009af9" fill-rule="evenodd" fill-opacity="0.5"/>
<polyline clip-path="url(#clip072)" style="stroke:#000000; stroke-linecap:round; stroke-linejoin:round; stroke-width:0; stroke-opacity:0.5; fill:none" points="1004.3,1162.29 984.175,1162.29 984.175,1281.25 1004.3,1281.25 1004.3,1162.29 "/>
<path clip-path="url(#clip072)" d="M1024.43 1173.32 L1004.3 1173.32 L1004.3 1286.48 L1024.43 1286.48 L1024.43 1173.32 L1024.43 1173.32  Z" fill="#009af9" fill-rule="evenodd" fill-opacity="0.5"/>
<polyline clip-path="url(#clip072)" style="stroke:#000000; stroke-linecap:round; stroke-linejoin:round; stroke-width:0; stroke-opacity:0.5; fill:none" points="1024.43,1173.32 1004.3,1173.32 1004.3,1286.48 1024.43,1286.48 1024.43,1173.32 "/>
<path clip-path="url(#clip072)" d="M1044.55 1183.82 L1024.43 1183.82 L1024.43 1291.47 L1044.55 1291.47 L1044.55 1183.82 L1044.55 1183.82  Z" fill="#009af9" fill-rule="evenodd" fill-opacity="0.5"/>
<polyline clip-path="url(#clip072)" style="stroke:#000000; stroke-linecap:round; stroke-linejoin:round; stroke-width:0; stroke-opacity:0.5; fill:none" points="1044.55,1183.82 1024.43,1183.82 1024.43,1291.47 1044.55,1291.47 1044.55,1183.82 "/>
<path clip-path="url(#clip072)" d="M1064.68 1193.81 L1044.55 1193.81 L1044.55 1296.2 L1064.68 1296.2 L1064.68 1193.81 L1064.68 1193.81  Z" fill="#009af9" fill-rule="evenodd" fill-opacity="0.5"/>
<polyline clip-path="url(#clip072)" style="stroke:#000000; stroke-linecap:round; stroke-linejoin:round; stroke-width:0; stroke-opacity:0.5; fill:none" points="1064.68,1193.81 1044.55,1193.81 1044.55,1296.2 1064.68,1296.2 1064.68,1193.81 "/>
<path clip-path="url(#clip072)" d="M1084.81 1203.31 L1064.68 1203.31 L1064.68 1300.71 L1084.81 1300.71 L1084.81 1203.31 L1084.81 1203.31  Z" fill="#009af9" fill-rule="evenodd" fill-opacity="0.5"/>
<polyline clip-path="url(#clip072)" style="stroke:#000000; stroke-linecap:round; stroke-linejoin:round; stroke-width:0; stroke-opacity:0.5; fill:none" points="1084.81,1203.31 1064.68,1203.31 1064.68,1300.71 1084.81,1300.71 1084.81,1203.31 "/>
<path clip-path="url(#clip072)" d="M1104.93 1212.35 L1084.81 1212.35 L1084.81 1305 L1104.93 1305 L1104.93 1212.35 L1104.93 1212.35  Z" fill="#009af9" fill-rule="evenodd" fill-opacity="0.5"/>
<polyline clip-path="url(#clip072)" style="stroke:#000000; stroke-linecap:round; stroke-linejoin:round; stroke-width:0; stroke-opacity:0.5; fill:none" points="1104.93,1212.35 1084.81,1212.35 1084.81,1305 1104.93,1305 1104.93,1212.35 "/>
<path clip-path="url(#clip072)" d="M1125.06 1220.95 L1104.93 1220.95 L1104.93 1309.08 L1125.06 1309.08 L1125.06 1220.95 L1125.06 1220.95  Z" fill="#009af9" fill-rule="evenodd" fill-opacity="0.5"/>
<polyline clip-path="url(#clip072)" style="stroke:#000000; stroke-linecap:round; stroke-linejoin:round; stroke-width:0; stroke-opacity:0.5; fill:none" points="1125.06,1220.95 1104.93,1220.95 1104.93,1309.08 1125.06,1309.08 1125.06,1220.95 "/>
<path clip-path="url(#clip072)" d="M1145.18 1229.12 L1125.06 1229.12 L1125.06 1312.95 L1145.18 1312.95 L1145.18 1229.12 L1145.18 1229.12  Z" fill="#009af9" fill-rule="evenodd" fill-opacity="0.5"/>
<polyline clip-path="url(#clip072)" style="stroke:#000000; stroke-linecap:round; stroke-linejoin:round; stroke-width:0; stroke-opacity:0.5; fill:none" points="1145.18,1229.12 1125.06,1229.12 1125.06,1312.95 1145.18,1312.95 1145.18,1229.12 "/>
<path clip-path="url(#clip072)" d="M1165.31 1236.9 L1145.18 1236.9 L1145.18 1316.64 L1165.31 1316.64 L1165.31 1236.9 L1165.31 1236.9  Z" fill="#009af9" fill-rule="evenodd" fill-opacity="0.5"/>
<polyline clip-path="url(#clip072)" style="stroke:#000000; stroke-linecap:round; stroke-linejoin:round; stroke-width:0; stroke-opacity:0.5; fill:none" points="1165.31,1236.9 1145.18,1236.9 1145.18,1316.64 1165.31,1316.64 1165.31,1236.9 "/>
<path clip-path="url(#clip072)" d="M1185.44 1244.3 L1165.31 1244.3 L1165.31 1320.15 L1185.44 1320.15 L1185.44 1244.3 L1185.44 1244.3  Z" fill="#009af9" fill-rule="evenodd" fill-opacity="0.5"/>
<polyline clip-path="url(#clip072)" style="stroke:#000000; stroke-linecap:round; stroke-linejoin:round; stroke-width:0; stroke-opacity:0.5; fill:none" points="1185.44,1244.3 1165.31,1244.3 1165.31,1320.15 1185.44,1320.15 1185.44,1244.3 "/>
<path clip-path="url(#clip072)" d="M1205.56 1251.34 L1185.44 1251.34 L1185.44 1323.49 L1205.56 1323.49 L1205.56 1251.34 L1205.56 1251.34  Z" fill="#009af9" fill-rule="evenodd" fill-opacity="0.5"/>
<polyline clip-path="url(#clip072)" style="stroke:#000000; stroke-linecap:round; stroke-linejoin:round; stroke-width:0; stroke-opacity:0.5; fill:none" points="1205.56,1251.34 1185.44,1251.34 1185.44,1323.49 1205.56,1323.49 1205.56,1251.34 "/>
<path clip-path="url(#clip072)" d="M1225.69 1258.03 L1205.56 1258.03 L1205.56 1326.67 L1225.69 1326.67 L1225.69 1258.03 L1225.69 1258.03  Z" fill="#009af9" fill-rule="evenodd" fill-opacity="0.5"/>
<polyline clip-path="url(#clip072)" style="stroke:#000000; stroke-linecap:round; stroke-linejoin:round; stroke-width:0; stroke-opacity:0.5; fill:none" points="1225.69,1258.03 1205.56,1258.03 1205.56,1326.67 1225.69,1326.67 1225.69,1258.03 "/>
<path clip-path="url(#clip072)" d="M1245.82 1264.4 L1225.69 1264.4 L1225.69 1329.69 L1245.82 1329.69 L1245.82 1264.4 L1245.82 1264.4  Z" fill="#009af9" fill-rule="evenodd" fill-opacity="0.5"/>
<polyline clip-path="url(#clip072)" style="stroke:#000000; stroke-linecap:round; stroke-linejoin:round; stroke-width:0; stroke-opacity:0.5; fill:none" points="1245.82,1264.4 1225.69,1264.4 1225.69,1329.69 1245.82,1329.69 1245.82,1264.4 "/>
<path clip-path="url(#clip072)" d="M1265.94 1270.46 L1245.82 1270.46 L1245.82 1332.56 L1265.94 1332.56 L1265.94 1270.46 L1265.94 1270.46  Z" fill="#009af9" fill-rule="evenodd" fill-opacity="0.5"/>
<polyline clip-path="url(#clip072)" style="stroke:#000000; stroke-linecap:round; stroke-linejoin:round; stroke-width:0; stroke-opacity:0.5; fill:none" points="1265.94,1270.46 1245.82,1270.46 1245.82,1332.56 1265.94,1332.56 1265.94,1270.46 "/>
<path clip-path="url(#clip072)" d="M1286.07 1276.22 L1265.94 1276.22 L1265.94 1335.3 L1286.07 1335.3 L1286.07 1276.22 L1286.07 1276.22  Z" fill="#009af9" fill-rule="evenodd" fill-opacity="0.5"/>
<polyline clip-path="url(#clip072)" style="stroke:#000000; stroke-linecap:round; stroke-linejoin:round; stroke-width:0; stroke-opacity:0.5; fill:none" points="1286.07,1276.22 1265.94,1276.22 1265.94,1335.3 1286.07,1335.3 1286.07,1276.22 "/>
<path clip-path="url(#clip072)" d="M1306.19 1281.7 L1286.07 1281.7 L1286.07 1337.9 L1306.19 1337.9 L1306.19 1281.7 L1306.19 1281.7  Z" fill="#009af9" fill-rule="evenodd" fill-opacity="0.5"/>
<polyline clip-path="url(#clip072)" style="stroke:#000000; stroke-linecap:round; stroke-linejoin:round; stroke-width:0; stroke-opacity:0.5; fill:none" points="1306.19,1281.7 1286.07,1281.7 1286.07,1337.9 1306.19,1337.9 1306.19,1281.7 "/>
<path clip-path="url(#clip072)" d="M1326.32 1286.92 L1306.19 1286.92 L1306.19 1340.37 L1326.32 1340.37 L1326.32 1286.92 L1326.32 1286.92  Z" fill="#009af9" fill-rule="evenodd" fill-opacity="0.5"/>
<polyline clip-path="url(#clip072)" style="stroke:#000000; stroke-linecap:round; stroke-linejoin:round; stroke-width:0; stroke-opacity:0.5; fill:none" points="1326.32,1286.92 1306.19,1286.92 1306.19,1340.37 1326.32,1340.37 1326.32,1286.92 "/>
<path clip-path="url(#clip072)" d="M1346.45 1291.88 L1326.32 1291.88 L1326.32 1342.72 L1346.45 1342.72 L1346.45 1291.88 L1346.45 1291.88  Z" fill="#009af9" fill-rule="evenodd" fill-opacity="0.5"/>
<polyline clip-path="url(#clip072)" style="stroke:#000000; stroke-linecap:round; stroke-linejoin:round; stroke-width:0; stroke-opacity:0.5; fill:none" points="1346.45,1291.88 1326.32,1291.88 1326.32,1342.72 1346.45,1342.72 1346.45,1291.88 "/>
<path clip-path="url(#clip072)" d="M1366.57 1296.6 L1346.45 1296.6 L1346.45 1344.96 L1366.57 1344.96 L1366.57 1296.6 L1366.57 1296.6  Z" fill="#009af9" fill-rule="evenodd" fill-opacity="0.5"/>
<polyline clip-path="url(#clip072)" style="stroke:#000000; stroke-linecap:round; stroke-linejoin:round; stroke-width:0; stroke-opacity:0.5; fill:none" points="1366.57,1296.6 1346.45,1296.6 1346.45,1344.96 1366.57,1344.96 1366.57,1296.6 "/>
<path clip-path="url(#clip072)" d="M1386.7 1301.08 L1366.57 1301.08 L1366.57 1347.09 L1386.7 1347.09 L1386.7 1301.08 L1386.7 1301.08  Z" fill="#009af9" fill-rule="evenodd" fill-opacity="0.5"/>
<polyline clip-path="url(#clip072)" style="stroke:#000000; stroke-linecap:round; stroke-linejoin:round; stroke-width:0; stroke-opacity:0.5; fill:none" points="1386.7,1301.08 1366.57,1301.08 1366.57,1347.09 1386.7,1347.09 1386.7,1301.08 "/>
<path clip-path="url(#clip072)" d="M1406.83 1305.35 L1386.7 1305.35 L1386.7 1349.12 L1406.83 1349.12 L1406.83 1305.35 L1406.83 1305.35  Z" fill="#009af9" fill-rule="evenodd" fill-opacity="0.5"/>
<polyline clip-path="url(#clip072)" style="stroke:#000000; stroke-linecap:round; stroke-linejoin:round; stroke-width:0; stroke-opacity:0.5; fill:none" points="1406.83,1305.35 1386.7,1305.35 1386.7,1349.12 1406.83,1349.12 1406.83,1305.35 "/>
<path clip-path="url(#clip072)" d="M1426.95 1309.41 L1406.83 1309.41 L1406.83 1351.04 L1426.95 1351.04 L1426.95 1309.41 L1426.95 1309.41  Z" fill="#009af9" fill-rule="evenodd" fill-opacity="0.5"/>
<polyline clip-path="url(#clip072)" style="stroke:#000000; stroke-linecap:round; stroke-linejoin:round; stroke-width:0; stroke-opacity:0.5; fill:none" points="1426.95,1309.41 1406.83,1309.41 1406.83,1351.04 1426.95,1351.04 1426.95,1309.41 "/>
<path clip-path="url(#clip072)" d="M1447.08 1313.28 L1426.95 1313.28 L1426.95 1352.88 L1447.08 1352.88 L1447.08 1313.28 L1447.08 1313.28  Z" fill="#009af9" fill-rule="evenodd" fill-opacity="0.5"/>
<polyline clip-path="url(#clip072)" style="stroke:#000000; stroke-linecap:round; stroke-linejoin:round; stroke-width:0; stroke-opacity:0.5; fill:none" points="1447.08,1313.28 1426.95,1313.28 1426.95,1352.88 1447.08,1352.88 1447.08,1313.28 "/>
<path clip-path="url(#clip072)" d="M1467.2 1316.95 L1447.08 1316.95 L1447.08 1354.62 L1467.2 1354.62 L1467.2 1316.95 L1467.2 1316.95  Z" fill="#009af9" fill-rule="evenodd" fill-opacity="0.5"/>
<polyline clip-path="url(#clip072)" style="stroke:#000000; stroke-linecap:round; stroke-linejoin:round; stroke-width:0; stroke-opacity:0.5; fill:none" points="1467.2,1316.95 1447.08,1316.95 1447.08,1354.62 1467.2,1354.62 1467.2,1316.95 "/>
<path clip-path="url(#clip072)" d="M1487.33 1320.45 L1467.2 1320.45 L1467.2 1356.28 L1487.33 1356.28 L1487.33 1320.45 L1487.33 1320.45  Z" fill="#009af9" fill-rule="evenodd" fill-opacity="0.5"/>
<polyline clip-path="url(#clip072)" style="stroke:#000000; stroke-linecap:round; stroke-linejoin:round; stroke-width:0; stroke-opacity:0.5; fill:none" points="1487.33,1320.45 1467.2,1320.45 1467.2,1356.28 1487.33,1356.28 1487.33,1320.45 "/>
<path clip-path="url(#clip072)" d="M1507.46 1323.77 L1487.33 1323.77 L1487.33 1357.85 L1507.46 1357.85 L1507.46 1323.77 L1507.46 1323.77  Z" fill="#009af9" fill-rule="evenodd" fill-opacity="0.5"/>
<polyline clip-path="url(#clip072)" style="stroke:#000000; stroke-linecap:round; stroke-linejoin:round; stroke-width:0; stroke-opacity:0.5; fill:none" points="1507.46,1323.77 1487.33,1323.77 1487.33,1357.85 1507.46,1357.85 1507.46,1323.77 "/>
<path clip-path="url(#clip072)" d="M1527.58 1326.93 L1507.46 1326.93 L1507.46 1359.35 L1527.58 1359.35 L1527.58 1326.93 L1527.58 1326.93  Z" fill="#009af9" fill-rule="evenodd" fill-opacity="0.5"/>
<polyline clip-path="url(#clip072)" style="stroke:#000000; stroke-linecap:round; stroke-linejoin:round; stroke-width:0; stroke-opacity:0.5; fill:none" points="1527.58,1326.93 1507.46,1326.93 1507.46,1359.35 1527.58,1359.35 1527.58,1326.93 "/>
<path clip-path="url(#clip072)" d="M1547.71 1329.94 L1527.58 1329.94 L1527.58 1360.78 L1547.71 1360.78 L1547.71 1329.94 L1547.71 1329.94  Z" fill="#009af9" fill-rule="evenodd" fill-opacity="0.5"/>
<polyline clip-path="url(#clip072)" style="stroke:#000000; stroke-linecap:round; stroke-linejoin:round; stroke-width:0; stroke-opacity:0.5; fill:none" points="1547.71,1329.94 1527.58,1329.94 1527.58,1360.78 1547.71,1360.78 1547.71,1329.94 "/>
<path clip-path="url(#clip072)" d="M1567.83 1332.8 L1547.71 1332.8 L1547.71 1362.14 L1567.83 1362.14 L1567.83 1332.8 L1567.83 1332.8  Z" fill="#009af9" fill-rule="evenodd" fill-opacity="0.5"/>
<polyline clip-path="url(#clip072)" style="stroke:#000000; stroke-linecap:round; stroke-linejoin:round; stroke-width:0; stroke-opacity:0.5; fill:none" points="1567.83,1332.8 1547.71,1332.8 1547.71,1362.14 1567.83,1362.14 1567.83,1332.8 "/>
<path clip-path="url(#clip072)" d="M1587.96 1335.52 L1567.83 1335.52 L1567.83 1363.43 L1587.96 1363.43 L1587.96 1335.52 L1587.96 1335.52  Z" fill="#009af9" fill-rule="evenodd" fill-opacity="0.5"/>
<polyline clip-path="url(#clip072)" style="stroke:#000000; stroke-linecap:round; stroke-linejoin:round; stroke-width:0; stroke-opacity:0.5; fill:none" points="1587.96,1335.52 1567.83,1335.52 1567.83,1363.43 1587.96,1363.43 1587.96,1335.52 "/>
<path clip-path="url(#clip072)" d="M1608.09 1338.11 L1587.96 1338.11 L1587.96 1364.66 L1608.09 1364.66 L1608.09 1338.11 L1608.09 1338.11  Z" fill="#009af9" fill-rule="evenodd" fill-opacity="0.5"/>
<polyline clip-path="url(#clip072)" style="stroke:#000000; stroke-linecap:round; stroke-linejoin:round; stroke-width:0; stroke-opacity:0.5; fill:none" points="1608.09,1338.11 1587.96,1338.11 1587.96,1364.66 1608.09,1364.66 1608.09,1338.11 "/>
<path clip-path="url(#clip072)" d="M1628.21 1340.58 L1608.09 1340.58 L1608.09 1365.83 L1628.21 1365.83 L1628.21 1340.58 L1628.21 1340.58  Z" fill="#009af9" fill-rule="evenodd" fill-opacity="0.5"/>
<polyline clip-path="url(#clip072)" style="stroke:#000000; stroke-linecap:round; stroke-linejoin:round; stroke-width:0; stroke-opacity:0.5; fill:none" points="1628.21,1340.58 1608.09,1340.58 1608.09,1365.83 1628.21,1365.83 1628.21,1340.58 "/>
<path clip-path="url(#clip072)" d="M1648.34 1342.92 L1628.21 1342.92 L1628.21 1366.94 L1648.34 1366.94 L1648.34 1342.92 L1648.34 1342.92  Z" fill="#009af9" fill-rule="evenodd" fill-opacity="0.5"/>
<polyline clip-path="url(#clip072)" style="stroke:#000000; stroke-linecap:round; stroke-linejoin:round; stroke-width:0; stroke-opacity:0.5; fill:none" points="1648.34,1342.92 1628.21,1342.92 1628.21,1366.94 1648.34,1366.94 1648.34,1342.92 "/>
<path clip-path="url(#clip072)" d="M1668.47 1345.15 L1648.34 1345.15 L1648.34 1367.99 L1668.47 1367.99 L1668.47 1345.15 L1668.47 1345.15  Z" fill="#009af9" fill-rule="evenodd" fill-opacity="0.5"/>
<polyline clip-path="url(#clip072)" style="stroke:#000000; stroke-linecap:round; stroke-linejoin:round; stroke-width:0; stroke-opacity:0.5; fill:none" points="1668.47,1345.15 1648.34,1345.15 1648.34,1367.99 1668.47,1367.99 1668.47,1345.15 "/>
<path clip-path="url(#clip072)" d="M1688.59 1347.27 L1668.47 1347.27 L1668.47 1369 L1688.59 1369 L1688.59 1347.27 L1688.59 1347.27  Z" fill="#009af9" fill-rule="evenodd" fill-opacity="0.5"/>
<polyline clip-path="url(#clip072)" style="stroke:#000000; stroke-linecap:round; stroke-linejoin:round; stroke-width:0; stroke-opacity:0.5; fill:none" points="1688.59,1347.27 1668.47,1347.27 1668.47,1369 1688.59,1369 1688.59,1347.27 "/>
<path clip-path="url(#clip072)" d="M1708.72 1349.28 L1688.59 1349.28 L1688.59 1369.96 L1708.72 1369.96 L1708.72 1349.28 L1708.72 1349.28  Z" fill="#009af9" fill-rule="evenodd" fill-opacity="0.5"/>
<polyline clip-path="url(#clip072)" style="stroke:#000000; stroke-linecap:round; stroke-linejoin:round; stroke-width:0; stroke-opacity:0.5; fill:none" points="1708.72,1349.28 1688.59,1349.28 1688.59,1369.96 1708.72,1369.96 1708.72,1349.28 "/>
<path clip-path="url(#clip072)" d="M1728.84 1351.2 L1708.72 1351.2 L1708.72 1370.87 L1728.84 1370.87 L1728.84 1351.2 L1728.84 1351.2  Z" fill="#009af9" fill-rule="evenodd" fill-opacity="0.5"/>
<polyline clip-path="url(#clip072)" style="stroke:#000000; stroke-linecap:round; stroke-linejoin:round; stroke-width:0; stroke-opacity:0.5; fill:none" points="1728.84,1351.2 1708.72,1351.2 1708.72,1370.87 1728.84,1370.87 1728.84,1351.2 "/>
<path clip-path="url(#clip072)" d="M1748.97 1353.03 L1728.84 1353.03 L1728.84 1371.73 L1748.97 1371.73 L1748.97 1353.03 L1748.97 1353.03  Z" fill="#009af9" fill-rule="evenodd" fill-opacity="0.5"/>
<polyline clip-path="url(#clip072)" style="stroke:#000000; stroke-linecap:round; stroke-linejoin:round; stroke-width:0; stroke-opacity:0.5; fill:none" points="1748.97,1353.03 1728.84,1353.03 1728.84,1371.73 1748.97,1371.73 1748.97,1353.03 "/>
<path clip-path="url(#clip072)" d="M1769.1 1354.76 L1748.97 1354.76 L1748.97 1372.56 L1769.1 1372.56 L1769.1 1354.76 L1769.1 1354.76  Z" fill="#009af9" fill-rule="evenodd" fill-opacity="0.5"/>
<polyline clip-path="url(#clip072)" style="stroke:#000000; stroke-linecap:round; stroke-linejoin:round; stroke-width:0; stroke-opacity:0.5; fill:none" points="1769.1,1354.76 1748.97,1354.76 1748.97,1372.56 1769.1,1372.56 1769.1,1354.76 "/>
<path clip-path="url(#clip072)" d="M1789.22 1356.41 L1769.1 1356.41 L1769.1 1373.34 L1789.22 1373.34 L1789.22 1356.41 L1789.22 1356.41  Z" fill="#009af9" fill-rule="evenodd" fill-opacity="0.5"/>
<polyline clip-path="url(#clip072)" style="stroke:#000000; stroke-linecap:round; stroke-linejoin:round; stroke-width:0; stroke-opacity:0.5; fill:none" points="1789.22,1356.41 1769.1,1356.41 1769.1,1373.34 1789.22,1373.34 1789.22,1356.41 "/>
<path clip-path="url(#clip072)" d="M1809.35 1357.98 L1789.22 1357.98 L1789.22 1374.08 L1809.35 1374.08 L1809.35 1357.98 L1809.35 1357.98  Z" fill="#009af9" fill-rule="evenodd" fill-opacity="0.5"/>
<polyline clip-path="url(#clip072)" style="stroke:#000000; stroke-linecap:round; stroke-linejoin:round; stroke-width:0; stroke-opacity:0.5; fill:none" points="1809.35,1357.98 1789.22,1357.98 1789.22,1374.08 1809.35,1374.08 1809.35,1357.98 "/>
<path clip-path="url(#clip072)" d="M1829.48 1359.48 L1809.35 1359.48 L1809.35 1374.79 L1829.48 1374.79 L1829.48 1359.48 L1829.48 1359.48  Z" fill="#009af9" fill-rule="evenodd" fill-opacity="0.5"/>
<polyline clip-path="url(#clip072)" style="stroke:#000000; stroke-linecap:round; stroke-linejoin:round; stroke-width:0; stroke-opacity:0.5; fill:none" points="1829.48,1359.48 1809.35,1359.48 1809.35,1374.79 1829.48,1374.79 1829.48,1359.48 "/>
<path clip-path="url(#clip072)" d="M1849.6 1360.9 L1829.48 1360.9 L1829.48 1375.47 L1849.6 1375.47 L1849.6 1360.9 L1849.6 1360.9  Z" fill="#009af9" fill-rule="evenodd" fill-opacity="0.5"/>
<polyline clip-path="url(#clip072)" style="stroke:#000000; stroke-linecap:round; stroke-linejoin:round; stroke-width:0; stroke-opacity:0.5; fill:none" points="1849.6,1360.9 1829.48,1360.9 1829.48,1375.47 1849.6,1375.47 1849.6,1360.9 "/>
<path clip-path="url(#clip072)" d="M1869.73 1362.25 L1849.6 1362.25 L1849.6 1376.11 L1869.73 1376.11 L1869.73 1362.25 L1869.73 1362.25  Z" fill="#009af9" fill-rule="evenodd" fill-opacity="0.5"/>
<polyline clip-path="url(#clip072)" style="stroke:#000000; stroke-linecap:round; stroke-linejoin:round; stroke-width:0; stroke-opacity:0.5; fill:none" points="1869.73,1362.25 1849.6,1362.25 1849.6,1376.11 1869.73,1376.11 1869.73,1362.25 "/>
<path clip-path="url(#clip072)" d="M1889.85 1363.54 L1869.73 1363.54 L1869.73 1376.72 L1889.85 1376.72 L1889.85 1363.54 L1889.85 1363.54  Z" fill="#009af9" fill-rule="evenodd" fill-opacity="0.5"/>
<polyline clip-path="url(#clip072)" style="stroke:#000000; stroke-linecap:round; stroke-linejoin:round; stroke-width:0; stroke-opacity:0.5; fill:none" points="1889.85,1363.54 1869.73,1363.54 1869.73,1376.72 1889.85,1376.72 1889.85,1363.54 "/>
<path clip-path="url(#clip072)" d="M1909.98 1364.76 L1889.85 1364.76 L1889.85 1377.3 L1909.98 1377.3 L1909.98 1364.76 L1909.98 1364.76  Z" fill="#009af9" fill-rule="evenodd" fill-opacity="0.5"/>
<polyline clip-path="url(#clip072)" style="stroke:#000000; stroke-linecap:round; stroke-linejoin:round; stroke-width:0; stroke-opacity:0.5; fill:none" points="1909.98,1364.76 1889.85,1364.76 1889.85,1377.3 1909.98,1377.3 1909.98,1364.76 "/>
<path clip-path="url(#clip072)" d="M1930.11 1365.92 L1909.98 1365.92 L1909.98 1377.85 L1930.11 1377.85 L1930.11 1365.92 L1930.11 1365.92  Z" fill="#009af9" fill-rule="evenodd" fill-opacity="0.5"/>
<polyline clip-path="url(#clip072)" style="stroke:#000000; stroke-linecap:round; stroke-linejoin:round; stroke-width:0; stroke-opacity:0.5; fill:none" points="1930.11,1365.92 1909.98,1365.92 1909.98,1377.85 1930.11,1377.85 1930.11,1365.92 "/>
<path clip-path="url(#clip072)" d="M1950.23 1367.03 L1930.11 1367.03 L1930.11 1378.38 L1950.23 1378.38 L1950.23 1367.03 L1950.23 1367.03  Z" fill="#009af9" fill-rule="evenodd" fill-opacity="0.5"/>
<polyline clip-path="url(#clip072)" style="stroke:#000000; stroke-linecap:round; stroke-linejoin:round; stroke-width:0; stroke-opacity:0.5; fill:none" points="1950.23,1367.03 1930.11,1367.03 1930.11,1378.38 1950.23,1378.38 1950.23,1367.03 "/>
<path clip-path="url(#clip072)" d="M1970.36 1368.08 L1950.23 1368.08 L1950.23 1378.87 L1970.36 1378.87 L1970.36 1368.08 L1970.36 1368.08  Z" fill="#009af9" fill-rule="evenodd" fill-opacity="0.5"/>
<polyline clip-path="url(#clip072)" style="stroke:#000000; stroke-linecap:round; stroke-linejoin:round; stroke-width:0; stroke-opacity:0.5; fill:none" points="1970.36,1368.08 1950.23,1368.08 1950.23,1378.87 1970.36,1378.87 1970.36,1368.08 "/>
<path clip-path="url(#clip072)" d="M1990.48 1369.08 L1970.36 1369.08 L1970.36 1379.35 L1990.48 1379.35 L1990.48 1369.08 L1990.48 1369.08  Z" fill="#009af9" fill-rule="evenodd" fill-opacity="0.5"/>
<polyline clip-path="url(#clip072)" style="stroke:#000000; stroke-linecap:round; stroke-linejoin:round; stroke-width:0; stroke-opacity:0.5; fill:none" points="1990.48,1369.08 1970.36,1369.08 1970.36,1379.35 1990.48,1379.35 1990.48,1369.08 "/>
<path clip-path="url(#clip072)" d="M2010.61 1370.04 L1990.48 1370.04 L1990.48 1379.8 L2010.61 1379.8 L2010.61 1370.04 L2010.61 1370.04  Z" fill="#009af9" fill-rule="evenodd" fill-opacity="0.5"/>
<polyline clip-path="url(#clip072)" style="stroke:#000000; stroke-linecap:round; stroke-linejoin:round; stroke-width:0; stroke-opacity:0.5; fill:none" points="2010.61,1370.04 1990.48,1370.04 1990.48,1379.8 2010.61,1379.8 2010.61,1370.04 "/>
<path clip-path="url(#clip072)" d="M2030.74 1370.94 L2010.61 1370.94 L2010.61 1380.23 L2030.74 1380.23 L2030.74 1370.94 L2030.74 1370.94  Z" fill="#009af9" fill-rule="evenodd" fill-opacity="0.5"/>
<polyline clip-path="url(#clip072)" style="stroke:#000000; stroke-linecap:round; stroke-linejoin:round; stroke-width:0; stroke-opacity:0.5; fill:none" points="2030.74,1370.94 2010.61,1370.94 2010.61,1380.23 2030.74,1380.23 2030.74,1370.94 "/>
<path clip-path="url(#clip072)" d="M2050.86 1371.8 L2030.74 1371.8 L2030.74 1380.64 L2050.86 1380.64 L2050.86 1371.8 L2050.86 1371.8  Z" fill="#009af9" fill-rule="evenodd" fill-opacity="0.5"/>
<polyline clip-path="url(#clip072)" style="stroke:#000000; stroke-linecap:round; stroke-linejoin:round; stroke-width:0; stroke-opacity:0.5; fill:none" points="2050.86,1371.8 2030.74,1371.8 2030.74,1380.64 2050.86,1380.64 2050.86,1371.8 "/>
<path clip-path="url(#clip072)" d="M2070.99 1372.62 L2050.86 1372.62 L2050.86 1381.03 L2070.99 1381.03 L2070.99 1372.62 L2070.99 1372.62  Z" fill="#009af9" fill-rule="evenodd" fill-opacity="0.5"/>
<polyline clip-path="url(#clip072)" style="stroke:#000000; stroke-linecap:round; stroke-linejoin:round; stroke-width:0; stroke-opacity:0.5; fill:none" points="2070.99,1372.62 2050.86,1372.62 2050.86,1381.03 2070.99,1381.03 2070.99,1372.62 "/>
<path clip-path="url(#clip072)" d="M2091.12 1373.4 L2070.99 1373.4 L2070.99 1381.4 L2091.12 1381.4 L2091.12 1373.4 L2091.12 1373.4  Z" fill="#009af9" fill-rule="evenodd" fill-opacity="0.5"/>
<polyline clip-path="url(#clip072)" style="stroke:#000000; stroke-linecap:round; stroke-linejoin:round; stroke-width:0; stroke-opacity:0.5; fill:none" points="2091.12,1373.4 2070.99,1373.4 2070.99,1381.4 2091.12,1381.4 2091.12,1373.4 "/>
<path clip-path="url(#clip072)" d="M2111.24 1374.15 L2091.12 1374.15 L2091.12 1381.75 L2111.24 1381.75 L2111.24 1374.15 L2111.24 1374.15  Z" fill="#009af9" fill-rule="evenodd" fill-opacity="0.5"/>
<polyline clip-path="url(#clip072)" style="stroke:#000000; stroke-linecap:round; stroke-linejoin:round; stroke-width:0; stroke-opacity:0.5; fill:none" points="2111.24,1374.15 2091.12,1374.15 2091.12,1381.75 2111.24,1381.75 2111.24,1374.15 "/>
<path clip-path="url(#clip072)" d="M2131.37 1374.85 L2111.24 1374.85 L2111.24 1382.09 L2131.37 1382.09 L2131.37 1374.85 L2131.37 1374.85  Z" fill="#009af9" fill-rule="evenodd" fill-opacity="0.5"/>
<polyline clip-path="url(#clip072)" style="stroke:#000000; stroke-linecap:round; stroke-linejoin:round; stroke-width:0; stroke-opacity:0.5; fill:none" points="2131.37,1374.85 2111.24,1374.85 2111.24,1382.09 2131.37,1382.09 2131.37,1374.85 "/>
<path clip-path="url(#clip072)" d="M2151.49 1375.52 L2131.37 1375.52 L2131.37 1382.4 L2151.49 1382.4 L2151.49 1375.52 L2151.49 1375.52  Z" fill="#009af9" fill-rule="evenodd" fill-opacity="0.5"/>
<polyline clip-path="url(#clip072)" style="stroke:#000000; stroke-linecap:round; stroke-linejoin:round; stroke-width:0; stroke-opacity:0.5; fill:none" points="2151.49,1375.52 2131.37,1375.52 2131.37,1382.4 2151.49,1382.4 2151.49,1375.52 "/>
<path clip-path="url(#clip072)" d="M2171.62 1376.16 L2151.49 1376.16 L2151.49 1382.71 L2171.62 1382.71 L2171.62 1376.16 L2171.62 1376.16  Z" fill="#009af9" fill-rule="evenodd" fill-opacity="0.5"/>
<polyline clip-path="url(#clip072)" style="stroke:#000000; stroke-linecap:round; stroke-linejoin:round; stroke-width:0; stroke-opacity:0.5; fill:none" points="2171.62,1376.16 2151.49,1376.16 2151.49,1382.71 2171.62,1382.71 2171.62,1376.16 "/>
<path clip-path="url(#clip072)" d="M2191.75 1376.77 L2171.62 1376.77 L2171.62 1383 L2191.75 1383 L2191.75 1376.77 L2191.75 1376.77  Z" fill="#009af9" fill-rule="evenodd" fill-opacity="0.5"/>
<polyline clip-path="url(#clip072)" style="stroke:#000000; stroke-linecap:round; stroke-linejoin:round; stroke-width:0; stroke-opacity:0.5; fill:none" points="2191.75,1376.77 2171.62,1376.77 2171.62,1383 2191.75,1383 2191.75,1376.77 "/>
<path clip-path="url(#clip072)" d="M2211.87 1377.35 L2191.75 1377.35 L2191.75 1383.27 L2211.87 1383.27 L2211.87 1377.35 L2211.87 1377.35  Z" fill="#009af9" fill-rule="evenodd" fill-opacity="0.5"/>
<polyline clip-path="url(#clip072)" style="stroke:#000000; stroke-linecap:round; stroke-linejoin:round; stroke-width:0; stroke-opacity:0.5; fill:none" points="2211.87,1377.35 2191.75,1377.35 2191.75,1383.27 2211.87,1383.27 2211.87,1377.35 "/>
<path clip-path="url(#clip072)" d="M2232 1377.9 L2211.87 1377.9 L2211.87 1383.53 L2232 1383.53 L2232 1377.9 L2232 1377.9  Z" fill="#009af9" fill-rule="evenodd" fill-opacity="0.5"/>
<polyline clip-path="url(#clip072)" style="stroke:#000000; stroke-linecap:round; stroke-linejoin:round; stroke-width:0; stroke-opacity:0.5; fill:none" points="2232,1377.9 2211.87,1377.9 2211.87,1383.53 2232,1383.53 2232,1377.9 "/>
<path clip-path="url(#clip072)" d="M2252.12 1378.42 L2232 1378.42 L2232 1383.78 L2252.12 1383.78 L2252.12 1378.42 L2252.12 1378.42  Z" fill="#009af9" fill-rule="evenodd" fill-opacity="0.5"/>
<polyline clip-path="url(#clip072)" style="stroke:#000000; stroke-linecap:round; stroke-linejoin:round; stroke-width:0; stroke-opacity:0.5; fill:none" points="2252.12,1378.42 2232,1378.42 2232,1383.78 2252.12,1383.78 2252.12,1378.42 "/>
<path clip-path="url(#clip072)" d="M2272.25 1378.92 L2252.12 1378.92 L2252.12 1384.01 L2272.25 1384.01 L2272.25 1378.92 L2272.25 1378.92  Z" fill="#009af9" fill-rule="evenodd" fill-opacity="0.5"/>
<polyline clip-path="url(#clip072)" style="stroke:#000000; stroke-linecap:round; stroke-linejoin:round; stroke-width:0; stroke-opacity:0.5; fill:none" points="2272.25,1378.92 2252.12,1378.92 2252.12,1384.01 2272.25,1384.01 2272.25,1378.92 "/>
<path clip-path="url(#clip072)" d="M2292.38 1379.39 L2272.25 1379.39 L2272.25 1384.24 L2292.38 1384.24 L2292.38 1379.39 L2292.38 1379.39  Z" fill="#009af9" fill-rule="evenodd" fill-opacity="0.5"/>
<polyline clip-path="url(#clip072)" style="stroke:#000000; stroke-linecap:round; stroke-linejoin:round; stroke-width:0; stroke-opacity:0.5; fill:none" points="2292.38,1379.39 2272.25,1379.39 2272.25,1384.24 2292.38,1384.24 2292.38,1379.39 "/>
<polyline clip-path="url(#clip072)" style="stroke:#ff00ff; stroke-linecap:round; stroke-linejoin:round; stroke-width:4; stroke-opacity:1; fill:none" points="279.759,737.4 300.088,769.473 320.418,799.966 340.747,828.958 361.077,856.521 381.406,882.727 401.736,907.643 422.065,931.331 442.395,953.853 462.724,975.265 483.054,995.623 503.383,1014.98 523.712,1033.38 544.042,1050.88 564.371,1067.51 584.701,1083.32 605.03,1098.36 625.36,1112.66 645.689,1126.25 666.019,1139.17 686.348,1151.45 706.678,1163.13 727.007,1174.24 747.337,1184.8 767.666,1194.84 787.996,1204.38 808.325,1213.45 828.655,1222.08 848.984,1230.28 869.314,1238.08 889.643,1245.49 909.973,1252.54 930.302,1259.24 950.632,1265.62 970.961,1271.67 991.291,1277.43 1011.62,1282.91 1031.95,1288.12 1052.28,1293.07 1072.61,1297.77 1092.94,1302.25 1113.27,1306.5 1133.6,1310.54 1153.93,1314.39 1174.26,1318.04 1194.59,1321.52 1214.91,1324.82 1235.24,1327.97 1255.57,1330.95 1275.9,1333.79 1296.23,1336.49 1316.56,1339.06 1336.89,1341.5 1357.22,1343.82 1377.55,1346.03 1397.88,1348.12 1418.21,1350.12 1438.54,1352.01 1458.87,1353.82 1479.2,1355.53 1499.53,1357.16 1519.86,1358.71 1540.19,1360.18 1560.52,1361.58 1580.85,1362.91 1601.17,1364.18 1621.5,1365.38 1641.83,1366.53 1662.16,1367.62 1682.49,1368.65 1702.82,1369.63 1723.15,1370.57 1743.48,1371.46 1763.81,1372.3 1784.14,1373.11 1804.47,1373.87 1824.8,1374.6 1845.13,1375.29 1865.46,1375.94 1885.79,1376.57 1906.12,1377.16 1926.45,1377.72 1946.78,1378.26 1967.11,1378.77 1987.44,1379.26 2007.76,1379.72 2028.09,1380.15 2048.42,1380.57 2068.75,1380.97 2089.08,1381.34 2109.41,1381.7 2129.74,1382.04 2150.07,1382.37 2170.4,1382.67 2190.73,1382.97 2211.06,1383.24 2231.39,1383.51 2251.72,1383.76 2272.05,1384 2292.38,1384.23 "/>
<polyline clip-path="url(#clip072)" style="stroke:#ff00ff; stroke-linecap:round; stroke-linejoin:round; stroke-width:4; stroke-opacity:1; fill:none" points="279.759,86.1857 300.088,150.331 320.418,211.318 340.747,269.301 361.077,324.428 381.406,376.84 401.736,426.671 422.065,474.048 442.395,519.091 462.724,561.916 483.054,602.631 503.383,641.342 523.712,678.145 544.042,713.137 564.371,746.405 584.701,778.034 605.03,808.106 625.36,836.696 645.689,863.879 666.019,889.722 686.348,914.293 706.678,937.654 727.007,959.864 747.337,980.981 767.666,1001.06 787.996,1020.14 808.325,1038.29 828.655,1055.55 848.984,1071.95 869.314,1087.55 889.643,1102.37 909.973,1116.47 930.302,1129.87 950.632,1142.62 970.961,1154.73 991.291,1166.25 1011.62,1177.2 1031.95,1187.62 1052.28,1197.52 1072.61,1206.93 1092.94,1215.88 1113.27,1224.38 1133.6,1232.47 1153.93,1240.16 1174.26,1247.47 1194.59,1254.42 1214.91,1261.03 1235.24,1267.32 1255.57,1273.29 1275.9,1278.97 1296.23,1284.37 1316.56,1289.5 1336.89,1294.39 1357.22,1299.03 1377.55,1303.44 1397.88,1307.63 1418.21,1311.62 1438.54,1315.41 1458.87,1319.02 1479.2,1322.45 1499.53,1325.71 1519.86,1328.8 1540.19,1331.75 1560.52,1334.55 1580.85,1337.21 1601.17,1339.75 1621.5,1342.15 1641.83,1344.44 1662.16,1346.62 1682.49,1348.68 1702.82,1350.65 1723.15,1352.52 1743.48,1354.3 1763.81,1355.99 1784.14,1357.6 1804.47,1359.12 1824.8,1360.58 1845.13,1361.96 1865.46,1363.27 1885.79,1364.52 1906.12,1365.7 1926.45,1366.83 1946.78,1367.91 1967.11,1368.93 1987.44,1369.9 2007.76,1370.82 2028.09,1371.69 2048.42,1372.53 2068.75,1373.32 2089.08,1374.07 2109.41,1374.79 2129.74,1375.47 2150.07,1376.12 2170.4,1376.73 2190.73,1377.32 2211.06,1377.87 2231.39,1378.4 2251.72,1378.91 2272.05,1379.38 2292.38,1379.84 "/>
</svg>
